<?xml version="1.0" encoding="utf-8"?>
<!-- Generator: Adobe Illustrator 27.5.0, SVG Export Plug-In . SVG Version: 6.00 Build 0)  -->
<svg version="1.1" xmlns="http://www.w3.org/2000/svg" xmlns:xlink="http://www.w3.org/1999/xlink" x="0px" y="0px"
	 viewBox="0 0 500 500" style="enable-background:new 0 0 500 500;" xml:space="preserve">
<g id="BACKGROUND">
	
		<linearGradient id="SVGID_1_" gradientUnits="userSpaceOnUse" x1="250" y1="523" x2="250" y2="-16.725" gradientTransform="matrix(-1 0 0 -1 500 500)">
		<stop  offset="0.1816" style="stop-color:#FFFFFF"/>
		<stop  offset="0.4635" style="stop-color:#FCFCFE"/>
		<stop  offset="0.6741" style="stop-color:#F2F4FA"/>
		<stop  offset="0.861" style="stop-color:#E2E6F4"/>
		<stop  offset="0.9997" style="stop-color:#D1D6EE"/>
	</linearGradient>
	<rect style="fill:url(#SVGID_1_);" width="500" height="500"/>
	<path style="fill:#E3EAFC;" d="M124.607,434.352c0.017,0,269.664,0,269.664,0c3.858-4.06,7.623-8.224,11.286-12.483
		c30.775-35.781-21.126-89.845-10.727-135.676c8.071-35.572,57.743-77.906,30.998-114.839c-15.002-20.707-39.768-14.11-61.046-9.866
		c-27.791,5.543-48.62,1.887-65.422-23.043c-14.435-21.419-23.717-46.232-50.259-54.971c-23.349-7.688-50.419-2.024-70.699,11.153
		c-11.921,7.746-21.746,19.267-25.624,32.945c-6.16,21.727,1.039,45.758-7.556,66.871c-7.811,19.188-26.014,31.087-43.904,39.843
		c-27.175,13.3-58.438,25.311-60.648,60.095c-1.781,28.045,14.61,53.537,31.283,74.614c8.272,10.456,17.621,19.943,26.122,30.186
		C101.915,403.808,120.222,434.352,124.607,434.352z"/>
</g>
<g id="OBJECTS">
	<g>
		
			<rect x="104.027" y="173.575" style="fill:#EFF3FC;stroke:#B3C6FC;stroke-width:1.0833;stroke-miterlimit:10;" width="68.731" height="7.473"/>
		<path style="fill:#E3EAFC;" d="M416.769,436.444c0,3.069-78.826,5.556-176.062,5.556c-97.236,0-176.062-2.488-176.062-5.556
			s78.826-5.556,176.062-5.556C337.943,430.887,416.769,433.375,416.769,436.444z"/>
		<g>
			<g>
				<rect x="265.62" y="345.635" style="fill:#FFAA00;" width="12.367" height="93.386"/>
				<rect x="399.593" y="345.635" style="fill:#FFAA00;" width="12.367" height="93.386"/>
			</g>
			<g>
				<rect x="265.62" y="345.635" style="fill:#D68F00;" width="12.367" height="20.214"/>
				<rect x="399.593" y="345.635" style="fill:#D68F00;" width="12.367" height="20.214"/>
			</g>
			<rect x="254.284" y="344.089" style="fill:#FFCB5D;" width="169.012" height="12.367"/>
		</g>
		<g>
			<g>
				<g>
					
						<line style="fill:none;stroke:#B3C6FC;stroke-width:2.0611;stroke-linecap:round;stroke-linejoin:round;stroke-miterlimit:10;" x1="214.312" y1="0" x2="214.312" y2="96.272"/>
					<g>
						<path style="fill:#EFF3FC;stroke:#B3C6FC;stroke-width:1.1113;stroke-miterlimit:10;" d="M221.389,108.405
							c0,3.909-3.169,7.077-7.077,7.077s-7.077-3.169-7.077-7.077c0-3.909,3.169-7.077,7.077-7.077S221.389,104.496,221.389,108.405
							z"/>
						<path style="fill:#EFF3FC;stroke:#B3C6FC;stroke-width:1.1113;stroke-miterlimit:10;" d="M241.408,96.272h-4.501
							c0.016-0.135,0.052-0.268,0.052-0.404c0-4.914-10.14-8.897-22.648-8.897c-12.508,0-22.648,3.983-22.648,8.897
							c0,0.136,0.037,0.269,0.052,0.404h-3.287l-9.302,12.133h70.37L241.408,96.272z"/>
					</g>
					
						<line style="fill:#EFF3FC;stroke:#B3C6FC;stroke-width:1.1113;stroke-miterlimit:10;" x1="188.428" y1="96.272" x2="241.408" y2="96.272"/>
				</g>
				<path style="fill:#E3EAFC;" d="M241.408,96.272h-4.501c0,0,0.319-7.259-15.519-8.856v8.856h-2.783l-2.748,12.133h33.639
					L241.408,96.272z"/>
				<polygon style="fill:#E3EAFC;" points="207.234,108.405 221.389,108.405 220.964,110.815 207.657,110.815 				"/>
			</g>
			<g>
				<rect x="270.429" y="120.886" style="fill:#E3EAFC;" width="109.248" height="158.029"/>
				<g>
					
						<rect x="270.429" y="117.659" style="fill:#EFF3FC;stroke:#B3C6FC;stroke-width:1.1943;stroke-miterlimit:10;" width="109.248" height="158.029"/>
					
						<rect x="254.371" y="149.264" transform="matrix(6.123234e-17 -1 1 6.123234e-17 128.3794 521.7266)" style="fill:#EFF3FC;" width="141.364" height="94.82"/>
					<g style="opacity:0.5;">
						<polygon style="fill:#FFFFFF;" points="367.316,125.987 277.647,235.092 277.647,195.704 334.936,125.987 						"/>
						<polygon style="fill:#FFFFFF;" points="372.458,153.214 372.458,192.602 311.016,267.359 278.657,267.359 						"/>
					</g>
					<polygon style="fill:#EFF3FC;stroke:#B3C6FC;stroke-width:1.1943;stroke-miterlimit:10;" points="372.463,193.338 
						327.941,193.338 327.941,125.992 322.165,125.992 322.165,193.338 277.643,193.338 277.643,200.009 322.165,200.009 
						322.165,267.355 327.941,267.355 327.941,200.009 372.463,200.009 					"/>
				</g>
				
					<rect x="254.371" y="149.264" transform="matrix(6.123234e-17 -1 1 6.123234e-17 128.3794 521.7266)" style="fill:none;stroke:#B3C6FC;stroke-width:1.1943;stroke-miterlimit:10;" width="141.364" height="94.82"/>
			</g>
			<g>
				<rect x="104.027" y="176.145" style="fill:#E3EAFC;" width="68.731" height="7.473"/>
				
					<rect x="107.267" y="144.646" style="fill:#EFF3FC;stroke:#B3C6FC;stroke-width:1.1943;stroke-miterlimit:10;" width="7.34" height="28.929"/>
				
					<rect x="116.638" y="135.145" style="fill:#EFF3FC;stroke:#B3C6FC;stroke-width:1.3765;stroke-miterlimit:10;" width="7.34" height="38.43"/>
				
					<rect x="126.009" y="135.145" style="fill:#EFF3FC;stroke:#B3C6FC;stroke-width:1.3765;stroke-miterlimit:10;" width="7.34" height="38.43"/>
			</g>
		</g>
		<g>
			<rect x="209.506" y="159.111" style="fill:#E3EAFC;" width="40.656" height="11.156"/>
			<rect x="394.981" y="225.717" style="fill:#E3EAFC;" width="40.656" height="11.156"/>
			<rect x="201.061" y="371.369" style="fill:#E3EAFC;" width="40.656" height="11.156"/>
			<rect x="161.228" y="140.235" style="fill:#E3EAFC;" width="40.656" height="11.156"/>
		</g>
		<g>
			<g>
				<path style="fill:#FFFFFF;stroke:#2C44AB;stroke-width:1.1113;stroke-miterlimit:10;" d="M218.708,217.168h-54.563
					c-1.481,0-2.682,1.201-2.682,2.682v30.431c0,1.481,1.201,2.682,2.682,2.682h43.09l5.484,13.032v-13.032h5.99
					c1.481,0,2.681-1.201,2.681-2.682v-30.431C221.389,218.368,220.189,217.168,218.708,217.168z"/>
				<g>
					<g>
						
							<rect x="166.686" y="222.856" style="fill:#EFF3FC;stroke:#B3C6FC;stroke-width:1.1113;stroke-miterlimit:10;" width="18.98" height="23.386"/>
						<polygon style="fill:#B3C6FC;" points="168.659,235.761 172.758,229.975 176.176,235.785 179.826,232.88 183.693,235.785 
							183.693,243.811 168.659,243.811 						"/>
						<circle style="fill:#FCEE21;" cx="179.182" cy="228.921" r="2.374"/>
					</g>
					<rect x="191.426" y="223.362" style="fill:#B3C6FC;" width="24.943" height="3.185"/>
					<rect x="191.426" y="229.702" style="fill:#81A1FC;" width="24.943" height="3.185"/>
					<rect x="191.426" y="236.042" style="fill:#B3C6FC;" width="24.943" height="3.185"/>
					<rect x="191.426" y="242.383" style="fill:#81A1FC;" width="24.943" height="3.185"/>
				</g>
			</g>
			<g>
				<path style="fill:#C41825;" d="M53.775,255.874l15.886-1.231c4.541,0,6.907,1.081,9.755,3.804l32.423,30.236h52.093
					c1.149,0.083,2.262,0.324,3.318,0.7c6.543,2.331,9.753,9.747,7.442,16.297l-4.296,12.177H73.985L53.775,255.874z"/>
				<g>
					<path style="fill:#662D91;" d="M176.505,439.02c-1.279,0-2.475-0.799-2.92-2.075l-18.881-54.169
						c-2.24-6.426-8.316-10.743-15.122-10.743h-26.14c-6.805,0-12.882,4.318-15.122,10.743l-18.88,54.169
						c-0.563,1.612-2.326,2.467-3.937,1.902c-1.612-0.563-2.464-2.325-1.902-3.937l18.88-54.169
						c3.105-8.908,11.528-14.892,20.961-14.892h26.14c9.433,0,17.856,5.984,20.961,14.892l18.881,54.169
						c0.562,1.612-0.29,3.374-1.902,3.937C177.186,438.964,176.843,439.02,176.505,439.02z"/>
				</g>
				<path style="fill:#C41825;" d="M177.975,366.268H137.84v-14.223h40.135c3.927,0,7.111,3.184,7.111,7.111l0,0
					C185.086,363.085,181.902,366.268,177.975,366.268z"/>
				<g>
					<g>
						<path style="fill:#1C2B6C;" d="M109.662,330.572c0,0,5.586,20.173,19.221,22.361c13.635,2.189,88.624-37.737,99.801-40.513
							c11.177-2.775,79.702,25.395,79.702,25.395l5.613-7.581c0,0-69.777-53.366-87.49-50.636
							c-17.713,2.73-119.147,41.77-119.147,41.77L109.662,330.572z"/>
						<path style="fill:#000A3B;" d="M308.386,337.816l7.883,6.32l3.573-3.659l-2.177-2.452l5.37,0.836l20.609-25.356
							c0,0-2.768-1.197-7.416,3.172c-4.648,4.369-16.34,14.341-22.23,13.56L308.386,337.816z"/>
					</g>
					<g>
						<path style="fill:#F59F84;" d="M185.666,289.994c0,0,10.883-11.04,13.154-11.353c2.27-0.313,10.686,3.894,10.686,3.894
							l-24.404,12.461L185.666,289.994z"/>
						<path style="fill:#F59F84;" d="M142.726,296.134c0,0,33.923-4.165,42.94-6.226l-0.43,4.165l-41.48,18.292L142.726,296.134z"/>
					</g>
					<g>
						<polygon style="fill:#CCCCCC;" points="176.16,300.427 230.066,275.545 231.981,280.637 177.851,303.606 						"/>
						<polygon style="fill:#BABABA;" points="230.066,275.545 235.695,274.068 238.215,278.933 231.981,280.637 						"/>
						<path style="fill:#BABABA;" d="M230.066,275.545c0.09-1.825,1.915-68.229,1.915-68.229l9.232,11.784l-5.519,54.968
							L230.066,275.545z"/>
						<polygon style="fill:#CCCCCC;" points="231.981,207.316 228.348,206.991 227.296,277.101 230.066,275.545 						"/>
					</g>
					<g>
						
							<linearGradient id="SVGID_00000127743334097781969970000014580567917428337284_" gradientUnits="userSpaceOnUse" x1="108.384" y1="323.6137" x2="320.2398" y2="323.6137">
							<stop  offset="0" style="stop-color:#2C44AB"/>
							<stop  offset="0.998" style="stop-color:#1C2B6C"/>
						</linearGradient>
						<path style="fill:url(#SVGID_00000127743334097781969970000014580567917428337284_);" d="M108.384,343.763
							c0,0,14.675,18.069,28.416,19.443c13.741,1.374,86.223-42.94,97.216-46.375c10.993-3.435,81.071,20.611,81.071,20.611
							l5.153-7.901c0,0-72.826-49.123-90.346-45.345c-17.52,3.779-116.453,48.78-116.453,48.78L108.384,343.763z"/>
						<path style="fill:#000A3B;" d="M315.087,337.443l8.244,5.84l3.349-3.865l-2.319-2.319l5.41,0.515l19.065-26.537
							c0,0-2.834-1.03-7.214,3.607c-4.38,4.638-15.458,15.287-21.384,14.857L315.087,337.443z"/>
						<path style="opacity:0.23;fill:#324DC2;" d="M324.352,342.097l-1.02,1.185l-8.244-5.843c0,0-70.078-24.043-81.074-20.611
							c-10.986,3.442-83.475,47.756-97.213,46.375c-13.737-1.371-28.413-19.436-28.413-19.436l5.05-10.79
							c0,0,10.996-5.009,26.32-11.81c21.549,1.453,55.176-1.711,94.255-24.599c0,0,53.816,22.126,81.837,39.697
							C319.065,338.284,321.94,340.242,324.352,342.097z"/>
					</g>
					<g>
						<polygon style="fill:#FEBDA9;" points="123.496,222.016 122.919,228.921 122.352,235.785 101.802,227.973 109.377,213.607 
							114.726,216.792 						"/>
					</g>
					<path style="fill:#A24366;" d="M123.496,222.016l-0.577,6.905c-8.543-3.576-8.584-9.636-8.193-12.13L123.496,222.016z"/>
					<path style="fill:#FEBDA9;" d="M147.224,188.671c0,0,5.291,46.306-12.308,40.858c-17.599-5.448-27.649-15.918-27.649-15.918
						S115.738,159.102,147.224,188.671z"/>
					
						<linearGradient id="SVGID_00000070112128601763058500000012665939159368204703_" gradientUnits="userSpaceOnUse" x1="91.04" y1="282.6756" x2="150.2528" y2="282.6756">
						<stop  offset="0" style="stop-color:#FF5C3D"/>
						<stop  offset="1" style="stop-color:#CF2A0A"/>
					</linearGradient>
					<path style="fill:url(#SVGID_00000070112128601763058500000012665939159368204703_);" d="M129.554,233.102l-28.069-11.838
						l-0.68,9.133c0,0-23.923,46.911,3.116,92.608c0,0-1.625,18.147,4.462,20.758c6.087,2.611,9.752-11.428,9.752-11.428
						s18.833-4.129,31.974-15.828c0,0,3.541-33.73-24.637-74.586L129.554,233.102z"/>
					<path style="fill:#42210B;" d="M105.138,218.741l2.862-0.518c0,0,17.617-11.058,25.698-24.014c0,0-4.926-3.495-1.599-7.423
						c0,0,2.64-1.615,7.793,0.836c5.153,2.451,12.104,3.362,19.621-10.835c0,0-4.421,1.749-8.588,0.549
						c-4.167-1.2,3.819,0.451,8.588-3.368c0,0-13.781,4.341-19.621,0.433c-5.84-3.909-30.121-11.557-33.046,14.596
						S105.138,218.741,105.138,218.741z"/>
					<path style="fill:#FEBDA9;" d="M126.009,207.318c0,0-3.97-12.746-9.815-7.954c-5.845,4.792-3.493,16.488,8.213,14.247
						L126.009,207.318z"/>
					<path style="fill:#FEBDA9;" d="M147.793,204.508l3.454,9.289c0.471,1.266-0.229,2.667-1.524,3.051l-6.387,1.894
						L147.793,204.508z"/>
					<path style="fill:#FF5C3D;" d="M119.564,253.166c0,0-9.494-13.683-18.758-4.71c-9.264,8.973-5.552,71.214,36.691,75.291
						l8.3-22.29L119.564,253.166z"/>
					<path style="opacity:0.35;fill:#FF5C3D;" d="M137.497,323.747l2.788-7.488l0,0c-24.296-8.225-27.29-54.284-27.613-69.4
						c-3.394-1.874-7.652-2.484-11.866,1.597C91.542,257.429,95.254,319.67,137.497,323.747z"/>
					<path style="fill:#FEBDA9;" d="M145.689,301.287c0,0-12.827,17.951-8.141,22.484c6.803,6.58,52.852-27.687,52.852-27.687
						l-1.212-2.787L145.689,301.287z"/>
					<path style="fill:#FEBDA9;" d="M190.26,296.134c0,0,5.969,0.945,10.95-6.441l3.264-3.95l8.931-1.374l0.687-1.374l-1.546-0.859
						c0,0-8.073-4.466-10.134-3.435c-2.061,1.03-13.279,14.632-13.279,14.632L190.26,296.134z"/>
					<path style="fill:#A24366;" d="M135.126,217.168c0,0,4.895,3.993,8.502,5.024C143.628,222.192,136.027,228.633,135.126,217.168
						z"/>
					<path style="fill:#FFFFFF;" d="M143.628,222.192c-3.607-1.031-8.502-5.024-8.502-5.024c0.049,0.618,0.12,1.174,0.205,1.691
						c1.522,1.106,4.707,3.305,6.449,4.503C142.858,222.842,143.628,222.192,143.628,222.192z"/>
					<path style="fill:#1B1F47;" d="M146.676,201.409l0.687-3.264c0,0-5.926-1.031-10.391,5.582l0.601,1.374
						C137.573,205.102,141.61,200.722,146.676,201.409z"/>
					<path style="fill:#401F47;" d="M144.34,207.336c-0.192,0.929-0.723,1.605-1.188,1.509c-0.465-0.096-0.686-0.927-0.494-1.856
						c0.192-0.929,0.724-1.605,1.188-1.509C144.31,205.576,144.532,206.407,144.34,207.336z"/>
					<g>
						<path style="fill:#633110;" d="M118.765,191.275c0,0,0.246-0.36,0.71-0.919C119.197,190.643,118.957,190.949,118.765,191.275z
							"/>
						<path style="fill:#633110;" d="M159.513,176.788c0,0-4.421,1.748-8.588,0.549c-3.564-1.026,1.762,0.03,6.362-2.032
							c-10.775,2.208-19.627,0.512-19.627,0.512c6.012,4.981,16.145,2.92,16.145,2.92c-6.699,3.092-23.531-0.859-23.531-0.859
							c12.71,9.79,23.359,3.779,23.359,3.779s-1.546,8.588-14.256,3.263c-10.493-4.396-17.703,2.793-19.901,5.436
							c3.974-4.105,16.122-4.406,16.122-4.406l-0.032,0.37c1.158,0.122,2.597,0.48,4.326,1.302
							C145.045,190.072,151.996,190.984,159.513,176.788z"/>
					</g>
					<path style="fill:#633110;" d="M115.713,172.549c-4.386,2.546-7.869,7.529-8.867,16.447
						c-2.924,26.153-1.708,29.744-1.708,29.744l0.558-0.101c1.407-5.815,1.228-14.957,2.764-28.396
						C109.44,181.669,112.633,176.069,115.713,172.549z"/>
					<g>
						<path style="fill:#FF5C3D;" d="M103.994,231.295c3.5,0.254,6.92,1.262,10.131,2.699c1.606,0.725,3.138,1.619,4.576,2.638
							c1.446,1.012,2.726,2.253,3.843,3.595c-1.4-1.057-2.803-2.048-4.284-2.923c-1.489-0.855-2.99-1.683-4.564-2.374
							c-1.559-0.719-3.156-1.359-4.772-1.963C107.301,232.381,105.667,231.806,103.994,231.295z"/>
					</g>
					<path style="fill:#A24366;" d="M121.6,204.216c-0.126-0.314-0.217-0.666-0.441-0.956c-0.381-0.624-0.947-1.05-1.476-1.327
						c-0.53-0.293-1.052-0.424-1.482-0.516c-0.871-0.16-1.41-0.095-1.41-0.095s0.524,0.14,1.29,0.479
						c0.743,0.353,1.79,0.907,2.401,1.895c0.027,0.039,0.038,0.083,0.062,0.122c-0.152-0.116-0.326-0.217-0.546-0.266
						c-0.574-0.119-1.163,0.029-1.685,0.327c-1.063,0.625-1.478,1.699-1.603,2.388c-0.131,0.715-0.079,1.154-0.079,1.154
						s0.154-0.418,0.47-1.016c0.316-0.593,0.837-1.346,1.632-1.805c0.386-0.227,0.82-0.368,1.158-0.355
						c0.331,0.007,0.622,0.207,0.831,0.453c0.132,0.152,0.229,0.299,0.313,0.434c0.097,0.55,0.095,1.086,0.053,1.521
						c-0.008,0.42-0.107,0.753-0.126,0.994c-0.031,0.241-0.049,0.374-0.049,0.374s0.06-0.12,0.169-0.335
						c0.092-0.222,0.29-0.529,0.402-0.956c0.057-0.216,0.119-0.452,0.186-0.706c0.037-0.261,0.046-0.549,0.064-0.852
						C121.727,204.871,121.665,204.547,121.6,204.216z"/>
					<line style="fill:none;" x1="162.564" y1="213.432" x2="161.534" y2="213.432"/>
					<path style="opacity:0.35;fill:#FF5C3D;" d="M103.922,323.006c-22.573-51.197-3.116-92.608-3.116-92.608
						S76.883,277.308,103.922,323.006z"/>
					<polygon style="fill:#A1A1A1;" points="230.066,275.545 231.981,225.287 237.059,260.473 235.695,274.068 238.215,278.933 
						231.981,280.637 					"/>
				</g>
				<path style="fill:#FA1E2E;" d="M87.708,288.793h68.361c11.384,0,19.774,10.642,17.117,21.712l-13.339,55.58H98.59
					c-5.262,0-9.928-3.382-11.565-8.384L54.284,257.658c-0.396-1.21,1.116-2.123,2.003-1.21L87.708,288.793z"/>
			</g>
		</g>
		<g>
			<g>
				<g>
					<g>
						<path style="fill:#EFF3FC;stroke:#B3C6FC;stroke-width:1.1113;stroke-miterlimit:10;" d="M402.129,324.803h-21.602v-30.379
							c0-5.965,4.836-10.801,10.801-10.801l0,0c5.965,0,10.801,4.836,10.801,10.801V324.803z"/>
						<g>
							
								<line style="fill:#EFF3FC;stroke:#B3C6FC;stroke-width:1.1113;stroke-miterlimit:10;" x1="386.337" y1="284.843" x2="386.337" y2="324.803"/>
							
								<line style="fill:#EFF3FC;stroke:#B3C6FC;stroke-width:1.1113;stroke-miterlimit:10;" x1="396.318" y1="284.843" x2="396.318" y2="324.803"/>
						</g>
						
							<line style="fill:#EFF3FC;stroke:#B3C6FC;stroke-width:1.1113;stroke-linecap:round;stroke-linejoin:round;stroke-miterlimit:10;" x1="391.328" y1="279.392" x2="391.328" y2="284.843"/>
						<g>
							
								<line style="fill:#EFF3FC;stroke:#B3C6FC;stroke-width:1.1113;stroke-linecap:round;stroke-linejoin:round;stroke-miterlimit:10;" x1="380.527" y1="286.605" x2="383.619" y2="290.384"/>
							
								<line style="fill:#EFF3FC;stroke:#B3C6FC;stroke-width:1.1113;stroke-linecap:round;stroke-linejoin:round;stroke-miterlimit:10;" x1="378.466" y1="295.709" x2="383.619" y2="295.709"/>
							
								<line style="fill:#EFF3FC;stroke:#B3C6FC;stroke-width:1.1113;stroke-linecap:round;stroke-linejoin:round;stroke-miterlimit:10;" x1="378.466" y1="302.923" x2="383.619" y2="302.923"/>
						</g>
						<g>
							
								<line style="fill:#EFF3FC;stroke:#B3C6FC;stroke-width:1.1113;stroke-linecap:round;stroke-linejoin:round;stroke-miterlimit:10;" x1="402.645" y1="286.605" x2="399.552" y2="290.384"/>
							
								<line style="fill:#EFF3FC;stroke:#B3C6FC;stroke-width:1.1113;stroke-linecap:round;stroke-linejoin:round;stroke-miterlimit:10;" x1="404.705" y1="295.709" x2="399.552" y2="295.709"/>
							
								<line style="fill:#EFF3FC;stroke:#B3C6FC;stroke-width:1.1113;stroke-linecap:round;stroke-linejoin:round;stroke-miterlimit:10;" x1="404.705" y1="302.923" x2="399.552" y2="302.923"/>
						</g>
						
							<line style="fill:#EFF3FC;stroke:#B3C6FC;stroke-width:1.1113;stroke-linecap:round;stroke-linejoin:round;stroke-miterlimit:10;" x1="392.745" y1="295.709" x2="389.91" y2="295.709"/>
						
							<line style="fill:#EFF3FC;stroke:#B3C6FC;stroke-width:1.1113;stroke-linecap:round;stroke-linejoin:round;stroke-miterlimit:10;" x1="392.745" y1="290.276" x2="389.91" y2="290.276"/>
						
							<line style="fill:#EFF3FC;stroke:#B3C6FC;stroke-width:1.1113;stroke-linecap:round;stroke-linejoin:round;stroke-miterlimit:10;" x1="392.745" y1="302.488" x2="389.91" y2="302.488"/>
						<path style="fill:#E3EAFC;" d="M397.038,285.268c-0.124,2.03-0.348,4.5-0.72,7.521c-1.476,12.002-11.418,13.442-15.791,13.487
							v18.528h21.602v-30.379C402.129,290.558,400.091,287.176,397.038,285.268z"/>
					</g>
					<polygon style="fill:#EFF3FC;stroke:#B3C6FC;stroke-width:1.1113;stroke-miterlimit:10;" points="408.105,309.268 
						374.55,309.268 382.483,334.284 400.172,334.284 					"/>
					<polygon style="fill:#E3EAFC;" points="407.969,309.268 400.755,333.047 394.228,333.047 401.098,309.268 					"/>
				</g>
				<g>
					
						<rect x="362.214" y="333.047" style="fill:#EFF3FC;stroke:#B3C6FC;stroke-width:1.1113;stroke-miterlimit:10;" width="58.227" height="11.042"/>
					
						<rect x="366.615" y="336.072" style="fill:#EFF3FC;stroke:#B3C6FC;stroke-width:1.1113;stroke-linecap:round;stroke-linejoin:round;stroke-miterlimit:10;" width="48.694" height="5.153"/>
					<rect x="362.214" y="339.508" style="fill:#E3EAFC;" width="58.227" height="4.582"/>
				</g>
			</g>
			<g>
				<g>
					<polygon style="fill:#EFF3FC;stroke:#B3C6FC;stroke-width:0.6398;stroke-miterlimit:10;" points="295.834,318.608 
						280.508,318.608 282.129,315.062 294.213,315.062 					"/>
					<polygon style="fill:#EFF3FC;stroke:#B3C6FC;stroke-width:0.8458;stroke-miterlimit:10;" points="297.89,319.119 
						278.452,319.119 283.048,344.135 293.294,344.135 					"/>
					
						<rect x="277.093" y="316.835" style="fill:#EFF3FC;stroke:#B3C6FC;stroke-width:0.8458;stroke-miterlimit:10;" width="22.157" height="2.284"/>
				</g>
				<polygon style="fill:#E3EAFC;" points="292.93,344.135 297.89,319.119 299.25,319.119 299.25,316.835 295.023,316.835 
					294.213,315.062 290.955,315.062 291.814,316.835 290.525,316.835 290.525,319.119 290.525,344.089 				"/>
			</g>
		</g>
	</g>
</g>
</svg>
