<?xml version="1.0" encoding="utf-8"?>
<!-- Generator: Adobe Illustrator 27.5.0, SVG Export Plug-In . SVG Version: 6.00 Build 0)  -->
<svg version="1.1" xmlns="http://www.w3.org/2000/svg" xmlns:xlink="http://www.w3.org/1999/xlink" x="0px" y="0px"
	 viewBox="0 0 500 500" style="enable-background:new 0 0 500 500;" xml:space="preserve">
<g id="Background_Complete">
	<g>
		<g>
			
				<rect x="416.258" y="285.354" transform="matrix(0.2494 -0.9684 0.9684 0.2494 23.7897 654.7246)" style="fill:#FFFFFF;" width="35.943" height="53.326"/>
			<g>
				<path style="fill:#E0E0E0;" d="M455.569,336.069c0,0,0.044-0.231,0.145-0.653c0.108-0.442,0.259-1.06,0.454-1.855
					c0.409-1.639,1.001-4.008,1.755-7.03c1.535-6.066,3.732-14.749,6.408-25.322l0.15,0.254
					c-14.261-3.657-32.206-8.259-51.65-13.246c-0.073,0.039,0.595-0.355,0.312-0.183l-0.002,0.009l-0.005,0.018l-0.009,0.036
					l-0.019,0.073l-0.037,0.145l-0.075,0.29l-0.15,0.58l-0.298,1.158c-0.198,0.771-0.396,1.539-0.594,2.304
					c-0.395,1.531-0.786,3.051-1.175,4.559c-0.778,3.016-1.544,5.985-2.296,8.898c-1.506,5.824-2.953,11.423-4.324,16.726
					l-0.171-0.29c15.162,3.954,28.029,7.309,37.131,9.682c4.539,1.197,8.137,2.146,10.627,2.803c1.22,0.327,2.167,0.581,2.834,0.759
					c0.308,0.085,0.549,0.152,0.734,0.204C455.479,336.037,455.566,336.064,455.569,336.069c0.003,0.006-0.076-0.01-0.236-0.046
					c-0.181-0.043-0.415-0.098-0.715-0.17c-0.659-0.163-1.596-0.394-2.802-0.692c-2.485-0.625-6.077-1.527-10.607-2.665
					c-9.154-2.327-22.093-5.617-37.341-9.494l-0.231-0.059l0.06-0.232c1.361-5.305,2.797-10.907,4.292-16.734
					c0.749-2.914,1.512-5.883,2.287-8.9c0.388-1.509,0.779-3.029,1.173-4.56c0.197-0.765,0.395-1.534,0.593-2.304l0.298-1.158
					l0.149-0.58l0.075-0.29l0.037-0.145l0.019-0.073l0.009-0.036l0.005-0.018l0.002-0.009c-0.283,0.164,0.388-0.234,0.323-0.191
					c19.434,5.024,37.37,9.661,51.624,13.347l0.203,0.052l-0.053,0.201c-2.777,10.603-5.058,19.311-6.652,25.394
					c-0.794,2.991-1.416,5.336-1.846,6.958c-0.21,0.774-0.372,1.375-0.489,1.806C455.634,335.875,455.569,336.069,455.569,336.069z"
					/>
			</g>
		</g>
		<g>
			<path style="fill:#E0E0E0;" d="M464.532,301.261c0.008,0.015-0.186,0.139-0.565,0.36c-0.426,0.242-0.98,0.556-1.67,0.948
				c-1.515,0.833-3.62,1.991-6.207,3.414c-5.322,2.871-12.612,6.804-20.736,11.187l-0.194,0.104l-0.135-0.175
				c-0.324-0.421-0.673-0.873-1.024-1.327c-5.848-7.634-11.139-14.541-15.013-19.598c-1.874-2.487-3.403-4.517-4.502-5.975
				c-0.498-0.679-0.897-1.224-1.203-1.641c-0.271-0.379-0.406-0.583-0.392-0.594c0.014-0.011,0.177,0.172,0.475,0.53
				c0.326,0.402,0.751,0.927,1.281,1.581c1.131,1.434,2.705,3.429,4.633,5.875c3.905,5.033,9.239,11.908,15.134,19.505
				c0.351,0.455,0.699,0.907,1.023,1.328l-0.329-0.07c8.154-4.327,15.47-8.211,20.812-11.045c2.619-1.363,4.75-2.472,6.284-3.27
				c0.708-0.357,1.278-0.643,1.715-0.864C464.313,301.339,464.524,301.246,464.532,301.261z"/>
		</g>
	</g>
	<g>
		<g>
			<path style="fill:#E0E0E0;" d="M107.748,370.421c-0.031-0.044,0.599-0.087,1.293-0.868c0.322-0.393,0.626-0.992,0.63-1.743
				c0.01-0.374-0.097-0.762-0.207-1.192c-0.108-0.428-0.222-0.883-0.343-1.364c-0.963-3.886-2.344-9.462-4.048-16.342
				c-0.424-1.726-0.868-3.534-1.331-5.417c-0.231-0.942-0.467-1.903-0.707-2.882c-0.133-0.486-0.207-1.006-0.41-1.42
				c-0.207-0.427-0.537-0.795-0.947-1.047c-0.411-0.248-0.897-0.375-1.383-0.341c-0.464,0.041-1.007,0.231-1.523,0.351
				c-1.045,0.271-2.107,0.547-3.184,0.827c-2.155,0.559-4.373,1.134-6.646,1.724c-9.101,2.352-19.103,4.937-29.601,7.651
				c-1.213,0.289-2.001,1.616-1.776,2.821c0.311,1.296,0.619,2.583,0.925,3.861c0.621,2.567,1.233,5.096,1.835,7.582
				c1.2,4.971,2.358,9.766,3.461,14.335c0.138,0.571,0.274,1.139,0.41,1.702c0.109,0.547,0.363,1.016,0.741,1.384
				c0.378,0.36,0.867,0.602,1.378,0.655c0.507,0.082,1.012-0.107,1.567-0.239c2.157-0.551,4.25-1.086,6.275-1.604
				c4.048-1.031,7.82-1.993,11.266-2.871c6.872-1.735,12.441-3.141,16.322-4.121c1.909-0.47,3.401-0.838,4.444-1.095
				c0.49-0.115,0.874-0.205,1.159-0.272C107.611,370.438,107.746,370.412,107.748,370.421c0.002,0.009-0.129,0.052-0.386,0.127
				c-0.282,0.079-0.662,0.186-1.146,0.322c-1.038,0.279-2.522,0.679-4.42,1.19c-3.871,1.018-9.427,2.479-16.281,4.282
				c-3.441,0.897-7.208,1.879-11.25,2.932c-2.023,0.526-4.115,1.069-6.269,1.629c-0.518,0.123-1.104,0.347-1.734,0.257
				c-0.614-0.063-1.2-0.35-1.65-0.777c-0.449-0.425-0.76-1.02-0.877-1.611c-0.138-0.564-0.276-1.131-0.415-1.701
				c-1.112-4.567-2.28-9.36-3.49-14.328c-0.604-2.485-1.218-5.014-1.842-7.58c-0.309-1.29-0.621-2.59-0.935-3.899
				c-0.271-1.446,0.671-3.051,2.159-3.409c10.502-2.699,20.507-5.271,29.611-7.611c2.276-0.583,4.495-1.151,6.652-1.703
				c1.078-0.276,2.141-0.548,3.187-0.815c0.534-0.119,1.01-0.301,1.606-0.358c0.577-0.038,1.154,0.117,1.636,0.411
				c0.481,0.297,0.865,0.731,1.104,1.23c0.241,0.516,0.3,1.023,0.433,1.507c0.235,0.98,0.466,1.942,0.692,2.886
				c0.451,1.886,0.885,3.697,1.298,5.425c1.637,6.896,2.963,12.485,3.887,16.38c0.113,0.483,0.22,0.94,0.32,1.37
				c0.1,0.423,0.207,0.841,0.188,1.237c-0.021,0.793-0.358,1.412-0.705,1.808c-0.361,0.396-0.73,0.592-0.98,0.689
				C107.889,370.41,107.748,370.421,107.748,370.421z"/>
		</g>
		<polygon style="fill:#E0E0E0;" points="84.511,356.047 90.857,357.964 86.099,362.698 81.341,367.431 79.753,360.781 
			78.165,354.13 		"/>
	</g>
	<g>
		<g>
			<path style="fill:#E0E0E0;" d="M166.426,60.166c2.927-1.199,5.027-4.189,5.074-7.733c0.058-4.643-3.423-8.453-7.777-8.51
				c-4.352-0.057-7.929,3.66-7.987,8.303c-0.045,3.577,2.018,6.639,4.956,7.891c-12.146,1.724-11.707,14.913-11.707,14.913
				l28.683,0.376C177.668,75.406,178.435,62.084,166.426,60.166z"/>
		</g>
	</g>
</g>
<g id="Background_Simple" style="display:none;">
	<path style="display:inline;fill:#F5F5F5;" d="M311.01,194.607c-26.708,0.983-39.006-1.113-53.207-14.384
		c-14.201-13.271-23.774-30.662-36.164-45.638c-13.845-16.735-31.834-30.717-52.793-36.413
		c-20.959-5.696-45.034-2.126-61.326,12.236c-11.818,10.419-18.737,25.587-21.458,41.105c-2.721,15.518-1.545,31.467,0.751,47.053
		c5.486,37.243,22.547,71.474,47.368,99.777c18.012,20.538,43.943,36.442,69.833,43.056c38.944,9.95,82.918,12.198,123.058,10.091
		c29.391-1.543,58.49-14.571,81.889-32.424c26.779-20.432,41.927-55.17,38.678-88.697c-1.797-18.541-10.012-37.792-26.31-46.812
		c-17.287-9.567-38.702-5.418-57.688,0.053C344.655,189.081,332.439,194.626,311.01,194.607"/>
</g>
<g id="Device_3">
	<g>
		<g>
			<path style="fill:#455A64;" d="M427.017,115.311v63.592c0,2.05-1.662,3.712-3.712,3.712h-94.49c-2.05,0-3.712-1.662-3.712-3.712
				v-63.592c0-2.05,1.662-3.712,3.712-3.712h94.49C425.356,111.599,427.017,113.261,427.017,115.311z"/>
			
				<rect x="341.363" y="104.552" transform="matrix(6.123234e-17 -1 1 6.123234e-17 227.5246 521.7388)" style="fill:#FFFFFF;" width="66.537" height="85.11"/>
			
				<ellipse transform="matrix(0.38 -0.925 0.925 0.38 125.4976 481.4494)" style="fill:#263238;" cx="421.896" cy="147.107" rx="2.725" ry="2.725"/>
			<path style="fill:#263238;" d="M329.165,136.976v20.263c0,0.311-0.252,0.563-0.563,0.563l0,0c-0.311,0-0.563-0.252-0.563-0.563
				v-20.263c0-0.311,0.252-0.563,0.563-0.563l0,0C328.913,136.413,329.165,136.665,329.165,136.976z"/>
		</g>
		<g>
			<rect x="366.331" y="79.504" style="fill:#E0E0E0;" width="52.183" height="71.408"/>
			<rect x="353.105" y="88.493" style="fill:#E8505B;" width="52.183" height="71.408"/>
			<g>
				<g>
					<rect x="344.163" y="99.459" style="fill:#FFFFFF;" width="52.183" height="71.408"/>
					<g>
						<path style="fill:#263238;" d="M396.372,170.849c0,0-0.009-0.123-0.014-0.351c-0.003-0.244-0.008-0.577-0.014-1.01
							c-0.007-0.904-0.018-2.21-0.031-3.903c-0.017-3.417-0.042-8.386-0.074-14.668c-0.038-12.568-0.091-30.388-0.154-51.476
							l0.236,0.236c-15.715,0.019-33.46,0.04-52.177,0.062h-0.006l0.26-0.261c0.001,26.673,0.002,51.366,0.003,71.408l-0.212-0.212
							c15.783,0.035,28.801,0.063,37.893,0.083c4.541,0.02,8.101,0.036,10.545,0.047c1.205,0.009,2.132,0.017,2.779,0.022
							C396.035,170.834,396.372,170.849,396.372,170.849s-0.305,0.016-0.922,0.024c-0.638,0.006-1.551,0.015-2.739,0.026
							c-2.433,0.014-5.976,0.035-10.497,0.062c-9.123,0.033-22.187,0.081-38.025,0.138l-0.212,0.001l0-0.213
							c-0.028-20.042-0.062-44.736-0.099-71.408l0-0.261h0.261h0.006c18.717-0.005,36.462-0.009,52.177-0.013l0.237,0l0,0.236
							c-0.033,21.151-0.06,39.024-0.08,51.629c-0.022,6.259-0.04,11.21-0.052,14.615c-0.011,1.673-0.02,2.963-0.025,3.856
							c-0.006,0.422-0.01,0.746-0.013,0.984C396.381,170.744,396.376,170.854,396.372,170.849z"/>
					</g>
				</g>
				<g>
					<path style="fill:#263238;" d="M376.061,113.807c0,0.144-5.677,0.264-12.679,0.27c-7.004,0.005-12.68-0.108-12.68-0.251
						s5.676-0.264,12.68-0.27C370.383,113.551,376.061,113.664,376.061,113.807z"/>
				</g>
				<g>
					<path style="fill:#263238;" d="M389.78,120.002c0,0.144-8.747,0.267-19.536,0.274c-10.792,0.008-19.538-0.103-19.538-0.246
						c0-0.144,8.746-0.267,19.538-0.274C381.033,119.748,389.78,119.859,389.78,120.002z"/>
				</g>
				<g>
					<path style="fill:#263238;" d="M389.785,126.476c0,0.144-8.748,0.267-19.536,0.274c-10.792,0.008-19.538-0.103-19.538-0.246
						c0-0.144,8.746-0.267,19.538-0.274C381.037,126.222,389.785,126.332,389.785,126.476z"/>
				</g>
				<g>
					<path style="fill:#263238;" d="M389.79,132.949c0,0.144-8.748,0.267-19.536,0.274c-10.792,0.008-19.538-0.102-19.538-0.246
						c0-0.144,8.746-0.267,19.538-0.274C381.042,132.695,389.79,132.805,389.79,132.949z"/>
				</g>
				<g>
					<path style="fill:#263238;" d="M389.794,139.422c0,0.144-8.748,0.267-19.536,0.274c-10.792,0.008-19.538-0.102-19.538-0.246
						c0-0.144,8.746-0.267,19.538-0.274C381.046,139.168,389.794,139.279,389.794,139.422z"/>
				</g>
				<g>
					<path style="fill:#263238;" d="M389.799,145.896c0,0.144-8.748,0.267-19.536,0.275c-10.792,0.008-19.538-0.103-19.538-0.246
						c0-0.144,8.746-0.267,19.538-0.274C381.051,145.641,389.799,145.752,389.799,145.896z"/>
				</g>
				<g>
					<path style="fill:#263238;" d="M389.804,152.369c0,0.144-8.747,0.267-19.536,0.275c-10.792,0.008-19.538-0.103-19.538-0.246
						c0-0.144,8.746-0.267,19.538-0.274C381.056,152.115,389.804,152.225,389.804,152.369z"/>
				</g>
				<g>
					<path style="fill:#263238;" d="M371.737,158.855c0,0.144-4.702,0.264-10.501,0.268c-5.801,0.004-10.502-0.109-10.502-0.253
						c0-0.144,4.701-0.264,10.502-0.268C367.035,158.598,371.737,158.711,371.737,158.855z"/>
				</g>
			</g>
		</g>
	</g>
</g>
<g id="Device_2_1_">
	<g>
		<g>
			<path style="fill:#263238;" d="M334.431,460.238h-145c-3.869,0-7.005-3.137-7.005-7.005v-91.142c0-3.869,3.136-7.005,7.005-7.005
				h145c3.869,0,7.006,3.137,7.006,7.005v91.142C341.436,457.102,338.3,460.238,334.431,460.238z"/>
			<path style="fill:#263238;" d="M338.851,461.662H184.976c-5.081,0-9.201-4.119-9.201-9.201l0,0h172.277l0,0
				C348.052,457.542,343.933,461.662,338.851,461.662z"/>
			<rect x="186.693" y="359.263" style="fill:#455A64;" width="150.03" height="88.8"/>
			<polygon style="fill:#455A64;" points="246.255,452.461 248.393,455.861 278.475,455.861 280.46,452.461 			"/>
		</g>
		<rect x="191.697" y="365.177" style="fill:#FFFFFF;" width="138.132" height="82.852"/>
		<g>
			<path style="fill:#EBEBEB;" d="M261.903,375.783l1.314,24.177c0.047,0.861,0.755,1.537,1.618,1.544l43.505,0.319
				c0.901,0.007,1.638-0.719,1.644-1.62l0.138-18.819c0.007-0.906-0.725-1.644-1.631-1.644l-26.757-0.024
				c-0.432,0-0.847-0.172-1.152-0.478l-4.617-4.615c-0.303-0.303-0.713-0.475-1.142-0.478l-11.279-0.083
				C262.604,374.056,261.852,374.844,261.903,375.783z"/>
			
				<rect x="262.516" y="376.72" transform="matrix(1 0.0073 -0.0073 1 2.872 -2.0871)" style="fill:#F5F5F5;" width="47.536" height="28.405"/>
			<path style="fill:#EBEBEB;" d="M258.821,379.068l3.412,29.647c0.061,0.527,0.505,0.926,1.035,0.93l46.326,0.339
				c0.548,0.004,1.007-0.414,1.053-0.96l2.549-29.604c0.052-0.61-0.426-1.135-1.038-1.14l-52.287-0.383
				C259.241,377.893,258.749,378.441,258.821,379.068z"/>
		</g>
		<g>
			<path style="fill:#E8505B;" d="M228.331,388.77l1.814,33.373c0.065,1.189,1.043,2.122,2.233,2.131l60.053,0.44
				c1.244,0.009,2.261-0.992,2.27-2.237l0.19-25.977c0.009-1.25-1.001-2.269-2.251-2.27l-36.934-0.033
				c-0.597,0-1.169-0.238-1.591-0.66l-6.373-6.37c-0.418-0.418-0.985-0.655-1.576-0.66l-15.57-0.114
				C229.299,386.384,228.261,387.472,228.331,388.77z"/>
			
				<rect x="229.178" y="390.063" transform="matrix(1 0.0073 -0.0073 1 3.0082 -1.9083)" style="fill:#F5F5F5;" width="65.617" height="39.21"/>
			<path style="fill:#E8505B;" d="M224.077,393.303l4.71,40.924c0.084,0.727,0.697,1.278,1.429,1.283l63.946,0.469
				c0.756,0.005,1.389-0.571,1.454-1.325l3.519-40.864c0.073-0.842-0.588-1.567-1.433-1.573l-72.176-0.529
				C224.657,391.682,223.978,392.439,224.077,393.303z"/>
		</g>
		<g>
			<g>
				<path style="fill:#263238;" d="M273.197,406.67c0.021-0.024,0.232,0.107,0.587,0.417c0.357,0.308,0.843,0.813,1.364,1.549
					c1.014,1.449,2.172,4.012,1.844,7.299c-0.298,3.227-2.123,7.024-5.635,9.595c-1.734,1.276-3.882,2.244-6.248,2.507
					c-2.367,0.269-4.881-0.231-7.094-1.409c-2.216-1.174-4.046-2.959-5.168-5.063c-1.125-2.104-1.516-4.443-1.369-6.599
					c0.14-2.165,0.807-4.166,1.785-5.817c0.968-1.665,2.245-2.963,3.536-3.931c2.603-1.962,5.212-2.645,6.96-2.921
					c0.887-0.124,1.58-0.155,2.049-0.145c0.47,0.016,0.714,0.042,0.715,0.078c0.003,0.093-0.982,0.1-2.69,0.466
					c-1.682,0.389-4.165,1.163-6.581,3.104c-1.2,0.957-2.37,2.211-3.239,3.78c-0.882,1.559-1.471,3.436-1.576,5.445
					c-0.111,2.002,0.274,4.148,1.311,6.058c1.029,1.905,2.715,3.545,4.757,4.626c2.04,1.086,4.34,1.546,6.494,1.315
					c2.164-0.226,4.163-1.099,5.797-2.27c3.309-2.356,5.099-5.885,5.467-8.901c0.4-3.064-0.578-5.533-1.452-6.996
					C273.9,407.373,273.126,406.741,273.197,406.67z"/>
			</g>
			<g>
				<path style="fill:#263238;" d="M261.284,398.423c0.211-0.383,2.621,1.306,5.379,3.634l0.459,0.388l-0.456,0.399
					c-0.108,0.094-0.223,0.195-0.339,0.297c-2.887,2.513-5.379,4.374-5.568,4.157c-0.189-0.217,1.997-2.429,4.884-4.942
					c0.116-0.101,0.232-0.201,0.34-0.295l0.003,0.786c-1.367-1.179-2.568-2.264-3.413-3.065
					C261.724,398.981,261.245,398.461,261.284,398.423z"/>
			</g>
		</g>
	</g>
</g>
<g id="Device_1">
	<g>
		<g>
			<g>
				<g>
					<g>
						<path style="fill:#263238;" d="M107.581,255.784l-39.869-4.633c-4.795-0.557-8.232-4.884-7.679-9.666l11.546-99.678
							c0.554-4.785,4.894-8.212,9.692-7.655l39.869,4.633c4.795,0.557,8.232,4.884,7.678,9.666l-11.546,99.678
							C116.719,252.914,112.379,256.342,107.581,255.784z"/>
					</g>
					<g>
						<path style="fill:#FFFFFF;" d="M120.699,142.22l-7.73-0.898c-1.036-0.12-1.979,0.658-2.104,1.739l-0.162,1.398
							c-0.125,1.081-1.067,1.859-2.103,1.739l-15.067-1.751c-1.037-0.12-1.776-1.094-1.65-2.175l0.162-1.398
							c0.125-1.081-0.614-2.055-1.651-2.175l-2.719-0.316l-6.766-0.786c-3.36-0.39-6.399,2.01-6.787,5.361l-11.269,97.293
							c-0.388,3.349,2.019,6.38,5.378,6.77l39.79,4.623c3.36,0.39,6.399-2.01,6.787-5.361l11.269-97.294
							C126.465,145.641,124.058,142.611,120.699,142.22z"/>
					</g>
				</g>
			</g>
		</g>
		<g>
			<g>
				
					<rect x="63.109" y="153.362" transform="matrix(0.9988 -0.0492 0.0492 0.9988 -7.998 4.1169)" style="fill:#F5F5F5;" width="32.996" height="22.24"/>
				<g>
					<path style="fill:#E0E0E0;" d="M95.538,152.564c0.024,0.026-0.383,0.449-1.141,1.191c-0.83,0.796-1.924,1.844-3.246,3.111
						c-2.758,2.612-6.595,6.198-10.867,10.145l-0.156,0.145l-0.173-0.124c-0.076-0.055-0.158-0.114-0.241-0.174
						c-4.774-3.441-9.078-6.579-12.178-8.872c-1.489-1.115-2.721-2.037-3.655-2.737c-0.856-0.656-1.32-1.032-1.299-1.061
						c0.021-0.029,0.525,0.292,1.417,0.897c0.959,0.665,2.224,1.542,3.752,2.603c3.155,2.216,7.494,5.307,12.267,8.748
						c0.082,0.059,0.165,0.119,0.241,0.174l-0.329,0.02c4.273-3.946,8.15-7.489,10.972-10.032c1.368-1.218,2.499-2.225,3.357-2.99
						C95.06,152.911,95.514,152.538,95.538,152.564z"/>
				</g>
			</g>
			<g>
				<path style="fill:#E0E0E0;" d="M63.676,176.401c-0.114-0.087,2.175-3.284,5.112-7.14c2.938-3.857,5.412-6.912,5.527-6.825
					c0.114,0.087-2.174,3.283-5.112,7.141C66.265,173.433,63.791,176.488,63.676,176.401z"/>
			</g>
			<g>
				<path style="fill:#E0E0E0;" d="M85.255,161.619c0.109-0.094,2.744,2.776,5.885,6.409c3.142,3.634,5.601,6.656,5.492,6.75
					c-0.109,0.094-2.743-2.775-5.886-6.409C87.605,164.735,85.146,161.713,85.255,161.619z"/>
			</g>
		</g>
		<g>
			<g>
				
					<rect x="88.166" y="175.22" transform="matrix(0.2004 -0.9797 0.9797 0.2004 -113.8065 268.3644)" style="fill:#E8505B;" width="38.663" height="57.361"/>
				<g>
					<path style="fill:#263238;" d="M139.469,190.707c0.008,0.016-0.207,0.152-0.626,0.397c-0.465,0.265-1.079,0.614-1.845,1.051
						c-1.663,0.921-3.986,2.206-6.838,3.784c-5.845,3.177-13.845,7.526-22.706,12.343l-0.187,0.102l-0.137-0.164
						c-0.104-0.125-0.217-0.26-0.331-0.396c-6.515-7.855-12.41-14.964-16.721-20.161c-2.093-2.563-3.799-4.652-5.021-6.148
						c-0.559-0.702-1.006-1.263-1.345-1.688c-0.303-0.39-0.455-0.6-0.442-0.611s0.193,0.176,0.522,0.544
						c0.358,0.41,0.83,0.95,1.42,1.626c1.252,1.47,3.002,3.523,5.148,6.042c4.341,5.172,10.277,12.247,16.838,20.064
						c0.113,0.136,0.226,0.271,0.33,0.396l-0.323-0.062c8.89-4.764,16.916-9.064,22.779-12.206c2.884-1.518,5.234-2.754,6.916-3.639
						c0.786-0.401,1.414-0.722,1.891-0.966C139.228,190.797,139.461,190.691,139.469,190.707z"/>
				</g>
			</g>
			<g>
				<path style="fill:#263238;" d="M75.525,217.094c-0.089-0.113,5.199-4.441,11.809-9.666c6.613-5.227,12.044-9.371,12.133-9.258
					c0.089,0.113-5.198,4.44-11.81,9.667C81.047,213.061,75.614,217.206,75.525,217.094z"/>
			</g>
			<g>
				<path style="fill:#263238;" d="M118.245,201.516c0.129-0.064,3.25,5.944,6.972,13.418c3.723,7.477,6.635,13.588,6.506,13.652
					c-0.129,0.064-3.25-5.943-6.972-13.42C121.029,207.692,118.116,201.58,118.245,201.516z"/>
			</g>
		</g>
	</g>
</g>
<g id="Character">
	<g>
		<path style="fill:#EBEBEB;" d="M331.628,312.561c9.006,0.097,11.774-12.327,3.505-15.899c-0.067-0.029-0.133-0.057-0.2-0.085
			c-6.694-2.809-14.752-2.103-20.856,1.827c-1.882-8.023-7.775-14.999-15.371-18.196c-7.596-3.197-16.704-2.534-23.757,1.729
			c-1.628-16.936-10.224-33.324-23.965-43.357c-13.742-10.033-32.564-13.164-48.438-7.041
			c-15.874,6.123-27.949,21.739-28.789,38.733c-8.899-0.946-18.14,1.92-24.942,7.736c-0.212,0.182-0.427,0.375-0.644,0.579
			c-12.151,11.447-3.742,31.958,12.95,32.138L331.628,312.561z"/>
		<g>
			<path style="fill:#E0E0E0;" d="M213.932,268.378c-0.719,0-1.302-0.046-1.302-0.103c0-0.057,0.583-0.103,1.302-0.103
				c0.719,0,1.302,0.046,1.302,0.103C215.234,268.332,214.651,268.378,213.932,268.378z"/>
		</g>
		<g>
			<g>
				<g>
					<g>
						<g>
							<g>
								<g>
									<path style="fill:#E8505B;" d="M344.556,306.656l0.177-7.927l-14.846-0.426l-0.381,11.594l0.919,0.086
										c4.09,0.345,20.821,1.466,23.583,0.715C357.088,309.858,344.556,306.656,344.556,306.656z"/>
								</g>
							</g>
						</g>
						<g style="opacity:0.4;">
							<g>
								<path style="fill:#FFFFFF;" d="M350.673,308.44c0,0,4.384,1.402,3.812,2.114c-0.572,0.712-17.522,0.215-24.979-0.658
									l0.033-0.331l19.766,0.748C349.305,310.314,349.808,308.452,350.673,308.44z"/>
							</g>
						</g>
						<g>
							<g>
								<g>
									<path style="fill:#263238;" d="M329.306,309.55c0,0.006,0.087,0.018,0.254,0.035c0.22,0.02,0.46,0.041,0.732,0.066
										c0.732,0.053,1.633,0.118,2.695,0.195c2.276,0.149,5.424,0.313,8.904,0.418c3.481,0.104,6.633,0.13,8.914,0.118
										c1.065-0.013,1.968-0.024,2.702-0.033c0.272-0.008,0.514-0.015,0.734-0.022c0.168-0.007,0.256-0.013,0.256-0.02
										c0-0.006-0.088-0.012-0.256-0.017c-0.221-0.004-0.462-0.008-0.734-0.012c-0.734-0.007-1.636-0.015-2.701-0.024
										c-2.28-0.021-5.431-0.067-8.909-0.17c-3.478-0.105-6.625-0.249-8.902-0.365c-1.064-0.055-1.965-0.101-2.697-0.138
										c-0.272-0.012-0.514-0.022-0.734-0.032C329.395,309.544,329.306,309.544,329.306,309.55z"/>
								</g>
							</g>
						</g>
						<g>
							<g>
								<g>
									<path style="fill:#263238;" d="M349.294,310.545c0.055,0.008,0.116-0.635,0.542-1.273c0.415-0.646,0.98-0.959,0.95-1.006
										c-0.009-0.045-0.654,0.216-1.101,0.907C349.23,309.859,349.249,310.554,349.294,310.545z"/>
								</g>
							</g>
						</g>
						<g>
							<g>
								<g>
									<path style="fill:#263238;" d="M344.979,308.194c0.041,0.028,0.258-0.221,0.485-0.556s0.377-0.629,0.336-0.657
										c-0.041-0.028-0.258,0.221-0.485,0.556C345.088,307.872,344.938,308.166,344.979,308.194z"/>
								</g>
							</g>
						</g>
						<g>
							<g>
								<g>
									<path style="fill:#263238;" d="M343.795,307.523c0.032,0.038,0.271-0.112,0.534-0.334c0.263-0.222,0.449-0.433,0.417-0.471
										c-0.032-0.038-0.271,0.111-0.534,0.334C343.95,307.274,343.763,307.485,343.795,307.523z"/>
								</g>
							</g>
						</g>
						<g>
							<g>
								<g>
									<path style="fill:#263238;" d="M343.077,306.1c-0.002,0.05,0.344,0.104,0.772,0.121c0.428,0.017,0.777-0.009,0.779-0.059
										c0.002-0.05-0.343-0.104-0.772-0.121C343.427,306.024,343.079,306.05,343.077,306.1z"/>
								</g>
							</g>
						</g>
						<g>
							<g>
								<g>
									<path style="fill:#263238;" d="M342.845,305.104c-0.018,0.044,0.355,0.225,0.857,0.277
										c0.502,0.054,0.904-0.046,0.896-0.093c-0.007-0.051-0.4-0.034-0.877-0.086
										C343.243,305.153,342.862,305.055,342.845,305.104z"/>
								</g>
							</g>
						</g>
						<g>
							<g>
								<g>
									<path style="fill:#263238;" d="M345.52,306.914c-0.002,0.02,0.363,0.076,0.954,0.022c0.295-0.027,0.644-0.086,1.022-0.194
										c0.188-0.061,0.384-0.105,0.588-0.223c0.096-0.06,0.204-0.146,0.245-0.289c0.044-0.142-0.028-0.305-0.133-0.385
										c-0.898-0.499-1.826-0.013-2.178,0.448c-0.193,0.235-0.285,0.467-0.33,0.627c-0.043,0.162-0.043,0.255-0.032,0.257
										c0.033,0.013,0.075-0.374,0.458-0.801c0.189-0.209,0.471-0.41,0.831-0.506c0.34-0.09,0.82-0.103,1.135,0.111
										c0.148,0.117,0.084,0.293-0.087,0.389c-0.16,0.097-0.365,0.152-0.543,0.213c-0.365,0.114-0.703,0.185-0.99,0.227
										C345.885,306.894,345.521,306.884,345.52,306.914z"/>
								</g>
							</g>
						</g>
						<g>
							<g>
								<g>
									<path style="fill:#263238;" d="M345.766,306.968c0.013,0.011,0.161-0.229,0.13-0.659c-0.017-0.211-0.087-0.463-0.24-0.705
										c-0.162-0.216-0.37-0.515-0.78-0.51c-0.222,0.022-0.337,0.27-0.307,0.432c0.012,0.168,0.083,0.313,0.15,0.431
										c0.135,0.242,0.29,0.44,0.434,0.59c0.291,0.301,0.524,0.42,0.535,0.402c0.017-0.023-0.185-0.177-0.439-0.486
										c-0.126-0.155-0.263-0.351-0.383-0.584c-0.125-0.206-0.204-0.57,0.036-0.607c0.24-0.016,0.476,0.229,0.617,0.423
										c0.144,0.211,0.221,0.435,0.252,0.628C345.831,306.715,345.735,306.96,345.766,306.968z"/>
								</g>
							</g>
						</g>
						<g>
							<g>
								<g>
									<path style="fill:#263238;" d="M329.728,305.497c0.002,0.034,0.426-0.028,1.095,0.071c0.663,0.093,1.579,0.393,2.364,1.056
										c0.785,0.665,1.232,1.519,1.434,2.157c0.208,0.643,0.217,1.071,0.251,1.068c0.011,0,0.019-0.107,0.009-0.299
										c-0.01-0.193-0.047-0.471-0.138-0.805c-0.175-0.664-0.621-1.565-1.439-2.258c-0.819-0.692-1.78-0.982-2.464-1.045
										c-0.345-0.034-0.626-0.025-0.817-0.003C329.831,305.46,329.727,305.486,329.728,305.497z"/>
								</g>
							</g>
						</g>
						<g>
							<g>
								<g>
									<path style="fill:#263238;" d="M331.448,299.364c-0.05-0.002-0.147,1.362-0.218,3.045
										c-0.071,1.684-0.088,3.051-0.038,3.053c0.05,0.002,0.147-1.361,0.218-3.046
										C331.48,300.733,331.497,299.366,331.448,299.364z"/>
								</g>
							</g>
						</g>
						<g>
							<g>
								<g>
									<path style="fill:#263238;" d="M336.802,308.542c-0.008,0.046,0.955,0.234,2.161,0.279c1.206,0.049,2.18-0.063,2.176-0.11
										c-0.003-0.052-0.974-0.021-2.169-0.07C337.775,308.597,336.81,308.491,336.802,308.542z"/>
								</g>
							</g>
						</g>
						<g>
							<g>
								<g>
									<path style="fill:#263238;" d="M333.893,308.453c-0.037,0.035,0.073,0.208,0.166,0.433
										c0.096,0.224,0.141,0.424,0.192,0.422c0.048,0.001,0.083-0.232-0.026-0.492
										C334.117,308.556,333.926,308.418,333.893,308.453z"/>
								</g>
							</g>
						</g>
						<g>
							<g>
								<g>
									<path style="fill:#263238;" d="M332.836,307.056c-0.036,0.034,0.055,0.191,0.204,0.351c0.149,0.16,0.299,0.263,0.336,0.229
										c0.036-0.034-0.055-0.191-0.204-0.352C333.023,307.125,332.873,307.022,332.836,307.056z"/>
								</g>
							</g>
						</g>
						<g>
							<g>
								<g>
									<path style="fill:#263238;" d="M331.286,306.387c0.009,0.051,0.206,0.055,0.422,0.138c0.218,0.078,0.37,0.204,0.41,0.171
										c0.041-0.026-0.078-0.241-0.347-0.34C331.502,306.255,331.272,306.34,331.286,306.387z"/>
								</g>
							</g>
						</g>
						<g>
							<g>
								<g>
									<path style="fill:#263238;" d="M330.177,306.06c-0.019,0.046,0.064,0.125,0.186,0.176c0.122,0.051,0.236,0.056,0.256,0.01
										c0.019-0.046-0.064-0.124-0.186-0.176C330.311,306.018,330.197,306.014,330.177,306.06z"/>
								</g>
							</g>
						</g>
					</g>
				</g>
				<polygon style="opacity:0.3;" points="329.76,305.1 344.598,305.288 344.626,303.5 329.669,304.157 				"/>
			</g>
			<g>
				<g>
					<g>
						<g>
							<g>
								<g>
									<path style="fill:#E8505B;" d="M328.842,306.502l0.177-7.927l-14.846-0.426l-0.381,11.594l0.919,0.086
										c4.09,0.345,20.821,1.466,23.583,0.715C341.374,309.705,328.842,306.502,328.842,306.502z"/>
								</g>
							</g>
						</g>
						<g style="opacity:0.4;">
							<g>
								<path style="fill:#FFFFFF;" d="M334.959,308.287c0,0,4.384,1.402,3.812,2.115c-0.572,0.712-17.522,0.216-24.979-0.658
									l0.033-0.331l19.766,0.748C333.591,310.16,334.094,308.298,334.959,308.287z"/>
							</g>
						</g>
						<g>
							<g>
								<g>
									<path style="fill:#263238;" d="M313.592,309.396c0,0.006,0.087,0.018,0.254,0.035c0.22,0.02,0.46,0.041,0.732,0.066
										c0.732,0.053,1.633,0.118,2.695,0.195c2.276,0.149,5.424,0.313,8.904,0.418c3.481,0.104,6.633,0.13,8.914,0.118
										c1.065-0.013,1.967-0.024,2.701-0.033c0.273-0.008,0.514-0.015,0.734-0.022c0.168-0.007,0.256-0.014,0.256-0.02
										c0-0.006-0.088-0.012-0.256-0.017c-0.221-0.004-0.462-0.008-0.735-0.012c-0.734-0.007-1.636-0.015-2.701-0.024
										c-2.28-0.021-5.431-0.067-8.909-0.171c-3.478-0.105-6.625-0.249-8.902-0.365c-1.063-0.054-1.964-0.101-2.697-0.138
										c-0.272-0.012-0.514-0.022-0.734-0.032C313.681,309.39,313.592,309.39,313.592,309.396z"/>
								</g>
							</g>
						</g>
						<g>
							<g>
								<g>
									<path style="fill:#263238;" d="M333.58,310.391c0.055,0.009,0.116-0.635,0.542-1.273c0.415-0.646,0.98-0.959,0.95-1.006
										c-0.009-0.045-0.654,0.216-1.101,0.907C333.516,309.705,333.535,310.4,333.58,310.391z"/>
								</g>
							</g>
						</g>
						<g>
							<g>
								<g>
									<path style="fill:#263238;" d="M329.265,308.04c0.041,0.028,0.258-0.221,0.485-0.556c0.227-0.335,0.377-0.629,0.336-0.657
										c-0.041-0.028-0.258,0.221-0.485,0.556C329.374,307.718,329.224,308.012,329.265,308.04z"/>
								</g>
							</g>
						</g>
						<g>
							<g>
								<g>
									<path style="fill:#263238;" d="M328.081,307.369c0.032,0.038,0.271-0.112,0.533-0.334c0.263-0.222,0.449-0.433,0.417-0.471
										c-0.032-0.038-0.271,0.112-0.534,0.334C328.236,307.12,328.049,307.331,328.081,307.369z"/>
								</g>
							</g>
						</g>
						<g>
							<g>
								<g>
									<path style="fill:#263238;" d="M327.363,305.946c-0.002,0.05,0.343,0.104,0.772,0.121c0.428,0.017,0.777-0.009,0.779-0.059
										c0.002-0.05-0.343-0.104-0.772-0.121C327.713,305.87,327.365,305.896,327.363,305.946z"/>
								</g>
							</g>
						</g>
						<g>
							<g>
								<g>
									<path style="fill:#263238;" d="M327.131,304.95c-0.018,0.044,0.355,0.225,0.857,0.277c0.502,0.054,0.905-0.046,0.896-0.093
										c-0.007-0.051-0.4-0.034-0.877-0.086C327.529,304.999,327.148,304.901,327.131,304.95z"/>
								</g>
							</g>
						</g>
						<g>
							<g>
								<g>
									<path style="fill:#263238;" d="M329.806,306.76c-0.002,0.02,0.363,0.076,0.954,0.022c0.295-0.027,0.645-0.086,1.022-0.194
										c0.188-0.061,0.384-0.105,0.588-0.223c0.096-0.06,0.204-0.146,0.245-0.289c0.044-0.142-0.028-0.305-0.133-0.385
										c-0.898-0.499-1.826-0.013-2.178,0.448c-0.193,0.235-0.285,0.467-0.33,0.627c-0.043,0.162-0.043,0.255-0.032,0.257
										c0.033,0.013,0.076-0.374,0.458-0.801c0.189-0.209,0.471-0.41,0.83-0.506c0.34-0.09,0.82-0.103,1.135,0.111
										c0.148,0.117,0.084,0.293-0.087,0.389c-0.16,0.097-0.365,0.152-0.543,0.213c-0.365,0.114-0.703,0.185-0.99,0.227
										C330.171,306.74,329.807,306.73,329.806,306.76z"/>
								</g>
							</g>
						</g>
						<g>
							<g>
								<g>
									<path style="fill:#263238;" d="M330.052,306.814c0.013,0.011,0.161-0.229,0.129-0.659c-0.017-0.211-0.087-0.463-0.24-0.705
										c-0.162-0.216-0.37-0.515-0.78-0.509c-0.222,0.022-0.337,0.27-0.307,0.432c0.013,0.168,0.083,0.313,0.15,0.431
										c0.135,0.242,0.29,0.44,0.434,0.59c0.291,0.301,0.523,0.42,0.535,0.402c0.017-0.023-0.185-0.177-0.439-0.486
										c-0.126-0.155-0.263-0.351-0.383-0.584c-0.125-0.205-0.204-0.57,0.036-0.607c0.239-0.016,0.476,0.229,0.616,0.423
										c0.144,0.211,0.221,0.435,0.252,0.628C330.117,306.561,330.021,306.806,330.052,306.814z"/>
								</g>
							</g>
						</g>
						<g>
							<g>
								<g>
									<path style="fill:#263238;" d="M314.014,305.343c0.002,0.034,0.426-0.028,1.095,0.071c0.662,0.093,1.579,0.393,2.364,1.056
										c0.784,0.665,1.232,1.519,1.433,2.157c0.208,0.643,0.217,1.071,0.251,1.068c0.011,0,0.019-0.107,0.009-0.299
										c-0.01-0.193-0.048-0.471-0.138-0.805c-0.175-0.664-0.621-1.564-1.439-2.258c-0.819-0.692-1.78-0.982-2.464-1.045
										c-0.345-0.034-0.626-0.025-0.817-0.003C314.116,305.306,314.013,305.332,314.014,305.343z"/>
								</g>
							</g>
						</g>
						<g>
							<g>
								<g>
									<path style="fill:#263238;" d="M315.734,299.211c-0.05-0.002-0.147,1.361-0.218,3.045
										c-0.071,1.685-0.088,3.051-0.038,3.053c0.05,0.002,0.147-1.361,0.218-3.046
										C315.766,300.58,315.783,299.213,315.734,299.211z"/>
								</g>
							</g>
						</g>
						<g>
							<g>
								<g>
									<path style="fill:#263238;" d="M321.088,308.389c-0.008,0.046,0.955,0.233,2.161,0.279c1.206,0.048,2.18-0.064,2.176-0.11
										c-0.003-0.052-0.974-0.021-2.169-0.07C322.061,308.443,321.095,308.337,321.088,308.389z"/>
								</g>
							</g>
						</g>
						<g>
							<g>
								<g>
									<path style="fill:#263238;" d="M318.179,308.299c-0.037,0.035,0.073,0.208,0.166,0.433
										c0.096,0.224,0.141,0.424,0.192,0.422c0.048,0.001,0.083-0.232-0.026-0.492
										C318.403,308.403,318.212,308.264,318.179,308.299z"/>
								</g>
							</g>
						</g>
						<g>
							<g>
								<g>
									<path style="fill:#263238;" d="M317.122,306.902c-0.036,0.034,0.055,0.191,0.204,0.351c0.149,0.16,0.299,0.263,0.336,0.229
										c0.036-0.034-0.055-0.191-0.204-0.352C317.309,306.971,317.159,306.868,317.122,306.902z"/>
								</g>
							</g>
						</g>
						<g>
							<g>
								<g>
									<path style="fill:#263238;" d="M315.572,306.233c0.009,0.051,0.206,0.055,0.422,0.138c0.218,0.078,0.37,0.204,0.41,0.171
										c0.041-0.026-0.078-0.241-0.347-0.34C315.788,306.101,315.558,306.186,315.572,306.233z"/>
								</g>
							</g>
						</g>
						<g>
							<g>
								<g>
									<path style="fill:#263238;" d="M314.463,305.906c-0.019,0.046,0.064,0.125,0.185,0.176c0.122,0.051,0.236,0.056,0.256,0.01
										c0.019-0.046-0.064-0.125-0.186-0.176C314.597,305.864,314.482,305.86,314.463,305.906z"/>
								</g>
							</g>
						</g>
					</g>
				</g>
				<polygon style="opacity:0.3;" points="314.046,304.946 328.883,305.134 328.912,303.346 313.955,304.003 				"/>
			</g>
			<g>
				<path style="fill:#263238;" d="M254.003,276.956l83.947-49.286c3.678-2.159,8.105-2.638,12.159-1.316l0,0
					c5.197,1.695,9.461,5.439,11.411,11.161c1.273,3.735,1.212,7.798,0.123,11.59l-14.275,55.16l-25.453,0.587l13.998-46.586
					l-41.616,28.382C280.732,296.444,261.628,291.848,254.003,276.956L254.003,276.956z"/>
				<path style="fill:#455A64;" d="M240.324,276.368l83.947-49.285c3.678-2.159,8.105-2.638,12.159-1.316l0,0
					c5.197,1.695,9.461,5.439,11.411,11.161c1.273,3.735,1.212,7.798,0.123,11.59l-14.392,55.609l-25.337,0.138l13.998-46.586
					l-41.616,28.382C267.053,295.856,247.95,291.261,240.324,276.368L240.324,276.368z"/>
			</g>
			<g>
				<path style="fill:#E8505B;" d="M283.756,226.168c0,0,2.148,22.875,0,25.062l-5.046,2.603l-11.31-7.666L283.756,226.168z"/>
				<path style="opacity:0.4;" d="M283.756,226.168c0,0,2.148,22.875,0,25.062l-5.046,2.603l-11.31-7.666L283.756,226.168z"/>
				<path style="fill:#E8505B;" d="M246.482,197.122c3.196-0.48-24.366-3.232-25.293,19.786
					c-0.924,22.943,19.135,60.124,19.135,60.124l38.386-23.199c0,0-9.209-6.506-10.686-10.858
					C266.615,238.822,269.199,199.668,246.482,197.122z"/>
				<g>
					<g>
						<g>
							<g>
								<g>
									<g>
										<g>
											<path style="fill:#E8505B;" d="M228.579,201.657c-1.172,0.292-9.955,8.221-10.066,24.049
												c-0.088,12.582,0.882,40.513,9.47,44.668c3.887,1.88,8.589,1.214,13.715-2.099c14.455-9.344,41.26-38.814,41.26-38.814
												l-11.458-12.206c0,0-29.746,30.269-31.014,29.158c-1.915-1.677-1.621-17.39-3.246-31.68
												C236.084,204.576,235.848,199.847,228.579,201.657z"/>
										</g>
									</g>
									<g>
										<path style="fill:#263238;" d="M271.084,241.984c0.007,0.006-0.041,0.075-0.141,0.204
											c-0.122,0.151-0.271,0.337-0.454,0.565c-0.403,0.493-1.002,1.217-1.799,2.127c-1.586,1.827-3.935,4.426-6.998,7.486
											c-3.076,3.043-6.855,6.564-11.385,10.075c-2.265,1.753-4.715,3.507-7.388,5.123c-2.681,1.583-5.56,3.157-8.841,3.922
											c-0.821,0.171-1.66,0.299-2.511,0.237c-0.421-0.03-0.851-0.083-1.258-0.232c-0.425-0.114-0.758-0.345-1.14-0.512
											c-1.46-0.769-2.686-1.875-3.674-3.106c-1.989-2.483-3.077-5.381-3.887-8.126c-0.779-2.77-1.217-5.473-1.54-7.995
											c-0.336-2.521-0.623-4.874-0.842-7.026c-0.443-4.305-0.633-7.804-0.694-10.223c-0.034-1.209-0.04-2.149-0.033-2.786
											c0.006-0.292,0.01-0.53,0.014-0.725c0.006-0.163,0.014-0.247,0.023-0.247c0.009,0,0.019,0.083,0.031,0.246
											c0.01,0.194,0.023,0.431,0.038,0.723c0.032,0.678,0.075,1.606,0.13,2.779c0.123,2.413,0.369,5.9,0.858,10.191
											c0.242,2.146,0.55,4.492,0.904,7.007c0.341,2.516,0.79,5.187,1.573,7.921c0.811,2.706,1.897,5.548,3.824,7.938
											c1.874,2.313,4.823,4.46,8.075,3.424c3.166-0.736,6.032-2.287,8.688-3.85c2.654-1.596,5.097-3.332,7.358-5.066
											c4.524-3.474,8.318-6.956,11.419-9.958c3.088-3.019,5.474-5.575,7.105-7.358c0.79-0.87,1.415-1.558,1.871-2.061
											c0.199-0.214,0.361-0.389,0.493-0.531C271.016,242.036,271.077,241.978,271.084,241.984z"/>
									</g>
									<g>
										<path style="fill:#263238;" d="M271.499,217.255c0.013,0.011-0.172,0.232-0.537,0.644c-0.367,0.408-0.902,1.02-1.622,1.78
											c-1.427,1.532-3.541,3.712-6.209,6.373c-2.669,2.66-5.897,5.798-9.548,9.25c-1.838,1.716-3.77,3.519-5.778,5.394
											c-2.043,1.849-4.099,3.797-6.414,5.665l-0.382,0.309l-0.03-0.507c-0.065-1.111-0.135-2.297-0.205-3.494
											c-0.359-6.252-0.7-12.206-1.011-17.63c-0.181-2.708-0.211-5.291-0.482-7.673c-0.266-2.38-0.818-4.566-1.738-6.376
											c-0.9-1.817-2.148-3.228-3.472-4.131c-1.335-0.896-2.71-1.281-3.832-1.395c-1.131-0.103-2.015,0.056-2.588,0.221
											c-0.578,0.161-0.86,0.314-0.873,0.285c0,0,0.264-0.189,0.842-0.385c0.573-0.201,1.471-0.398,2.636-0.323
											c1.154,0.085,2.578,0.451,3.976,1.354c1.387,0.91,2.694,2.351,3.639,4.206c0.966,1.847,1.551,4.083,1.839,6.492
											c0.293,2.415,0.338,4.996,0.533,7.702c0.324,5.423,0.679,11.376,1.052,17.628c0.07,1.197,0.139,2.383,0.204,3.494
											l-0.412-0.198c2.248-1.812,4.346-3.784,6.38-5.615c2.015-1.864,3.953-3.658,5.797-5.364c3.668-3.43,6.92-6.537,9.62-9.162
											c2.698-2.626,4.849-4.766,6.318-6.255c0.71-0.72,1.272-1.291,1.688-1.714
											C271.277,217.442,271.486,217.243,271.499,217.255z"/>
									</g>
									<g>
										<path style="fill:#263238;" d="M278.535,234.219c-0.052,0.049-0.746-0.592-1.825-1.669
											c-1.079-1.077-2.544-2.591-4.138-4.284c-1.595-1.694-3.017-3.247-4.027-4.389c-1.01-1.142-1.608-1.872-1.556-1.921
											c0.053-0.049,0.747,0.593,1.826,1.671c1.079,1.077,2.543,2.59,4.137,4.283c1.593,1.693,3.015,3.245,4.025,4.387
											C277.988,233.439,278.587,234.17,278.535,234.219z"/>
									</g>
									<g>
										<path style="fill:#263238;" d="M238.514,253.247c-0.135-0.035,0.203-1.761,0.964-3.784
											c0.756-2.025,1.636-3.548,1.76-3.486c0.133,0.065-0.526,1.67-1.273,3.668
											C239.215,251.642,238.657,253.286,238.514,253.247z"/>
									</g>
									<g>
										<path style="fill:#263238;" d="M235.936,251.229c-0.097-0.106,1.114-1.368,2.705-2.818
											c1.591-1.451,2.959-2.54,3.056-2.433c0.097,0.106-1.114,1.368-2.705,2.818
											C237.401,250.246,236.033,251.335,235.936,251.229z"/>
									</g>
								</g>
							</g>
						</g>
					</g>
				</g>
				<g>
					<path style="fill:#263238;" d="M270.877,220.771c0.051,0.055-0.164,0.278-0.115,0.667c0.024,0.189,0.122,0.382,0.321,0.477
						c0.193,0.102,0.488,0.098,0.668-0.045c0.181-0.141,0.254-0.427,0.2-0.639c-0.046-0.215-0.211-0.356-0.388-0.423
						c-0.367-0.138-0.633,0.018-0.675-0.044c-0.059-0.029,0.179-0.389,0.764-0.313c0.27,0.034,0.635,0.247,0.759,0.644
						c0.124,0.373,0.047,0.868-0.338,1.184c-0.398,0.301-0.897,0.259-1.23,0.051c-0.357-0.214-0.479-0.618-0.448-0.889
						C270.457,220.854,270.863,220.706,270.877,220.771z"/>
				</g>
				<g style="opacity:0.4;">
					<path d="M238.148,270.615c13.514-2.71,25.322-12.75,30.171-25.652c-9.113,9.531-18.467,19.244-30.227,25.211"/>
				</g>
				<g style="opacity:0.4;">
					<path d="M239.419,215.119c1.624,6.787,3.249,13.574,4.873,20.361c0.471,1.966,0.944,3.997,0.61,5.992
						c-0.334,1.994-1.688,3.962-3.669,4.368c-0.661-10.176-1.322-20.351-1.984-30.527"/>
				</g>
			</g>
			<g>
				<path style="fill:#263238;" d="M227.042,178.742c-2.649-1.393-6.039-1.25-8.561,0.361c-2.522,1.611-4.077,4.627-3.927,7.616
					c0.113,2.254,1.093,4.642,0.096,6.667c-1.29,2.621-5.442,3.545-5.546,6.464c-0.07,1.978,1.925,3.515,2.065,5.489
					c0.118,1.667-1.091,3.086-1.858,4.57c-2.072,4.009-0.688,9.396,2.921,12.104c3.609,2.708,8.986,2.615,12.649-0.02
					c3.663-2.635,5.466-7.52,4.644-11.957c-0.458-2.475-1.653-4.889-1.328-7.385c0.171-1.314,0.762-2.568,0.756-3.893
					c-0.015-3.84-4.753-6.132-5.464-9.906c-0.596-3.161,2.526-6.427,5.711-5.974"/>
				<g>
					<g>
						<g>
							<g>
								<g>
									<path style="fill:#CC8B75;" d="M251.336,198.712c0.127-2.967,0.287-5.653,0.287-5.653s6.632-0.837,6.918-7.605
										c0.286-6.77-0.387-22.356-0.387-22.356l-12.206-5.862l-11.529,10.773l0.456,30.895c0.297,4.479,4.123,7.898,8.607,7.69l0,0
										C247.745,206.397,251.154,202.976,251.336,198.712z"/>
								</g>
								<g>
									<g>
										<path style="fill:#263238;" d="M246.945,174.054c0.008,0.478-0.363,0.872-0.829,0.88c-0.465,0.008-0.85-0.372-0.858-0.851
											c-0.008-0.478,0.363-0.872,0.828-0.88C246.552,173.195,246.937,173.576,246.945,174.054z"/>
									</g>
									<g>
										<g>
											<path style="fill:#263238;" d="M247.764,173.704c-0.107,0.114-0.739-0.419-1.648-0.453
												c-0.908-0.048-1.583,0.426-1.679,0.303c-0.048-0.055,0.061-0.263,0.356-0.478c0.289-0.214,0.781-0.414,1.347-0.388
												c0.566,0.026,1.039,0.269,1.309,0.508C247.724,173.436,247.816,173.653,247.764,173.704z"/>
										</g>
									</g>
								</g>
								<g>
									<g>
										<path style="fill:#263238;" d="M251.176,181.517c-0.003-0.055,0.563-0.137,1.481-0.226
											c0.232-0.016,0.453-0.057,0.495-0.225c0.057-0.177-0.036-0.449-0.143-0.743c-0.209-0.61-0.427-1.25-0.657-1.92
											c-0.911-2.733-1.566-4.976-1.464-5.012c0.102-0.036,0.924,2.15,1.835,4.882c0.219,0.674,0.429,1.316,0.628,1.93
											c0.083,0.286,0.229,0.612,0.105,0.98c-0.065,0.183-0.238,0.311-0.387,0.348c-0.15,0.042-0.28,0.04-0.395,0.043
											C251.75,181.591,251.178,181.573,251.176,181.517z"/>
									</g>
								</g>
								<g>
									<path style="fill:#B26752;" d="M251.623,193.059c0,0-4.436,0.127-8.782-2.875c0,0,2.064,4.931,8.667,4.536L251.623,193.059
										z"/>
								</g>
								<g>
									<path style="fill:#263238;" d="M225.692,174.486L225.692,174.486c-0.023,5.859-1.699,13.55,8.98,15.698l1.039-13.967
										c0,0,9.548-2.756,10.802-14.599l0.063,0.058c0.662,1.533,1.842,4.825,1.125,7.506l9.683,2.386l1.114,1.02
										c0,0,3.448-7.556-3.205-14.41c-6.653-6.854-12.337-1.887-15.903-2.315c-2.174-0.261-8.801-0.457-12.471,10.423
										c-0.625,1.853-0.955,3.792-1.076,5.743L225.692,174.486z"/>
								</g>
							</g>
						</g>
					</g>
					<g>
						<g>
							<path style="fill:#CC8B75;" d="M235.71,176.217c-1.228-1.352-3.155-0.186-3.871,0.596c-1.127,1.23-1.324,3.218-0.459,4.645
								c0.865,1.427,2.718,2.172,4.33,1.742"/>
							<g>
								<path style="fill:#B26752;" d="M234.482,181.172c-0.003,0.065-0.307,0.134-0.791,0.015
									c-0.459-0.111-1.183-0.474-1.461-1.278c-0.136-0.389-0.108-0.819,0.046-1.147c0.151-0.329,0.389-0.549,0.604-0.686
									c0.443-0.272,0.774-0.236,0.782-0.175c0.02,0.077-0.255,0.177-0.557,0.467c-0.307,0.28-0.588,0.805-0.381,1.375
									c0.19,0.57,0.708,0.914,1.092,1.098C234.207,181.029,234.489,181.096,234.482,181.172z"/>
							</g>
						</g>
						<path style="fill:#E8505B;" d="M233.598,182.506c-0.491,0.116-0.742,0.792-0.446,1.201c0.296,0.408,1.017,0.379,1.28-0.051
							c0.262-0.431-0.043-1.085-0.541-1.161"/>
					</g>
				</g>
				<g>
					<path style="fill:#E8505B;" d="M226.543,184.187c-0.128,0.05-0.724-1.264-0.961-3.012c-0.246-1.747-0.029-3.174,0.107-3.161
						c0.15,0.008,0.17,1.402,0.408,3.089C226.326,182.792,226.685,184.138,226.543,184.187z"/>
				</g>
			</g>
			<g>
				<polygon style="fill:#263238;" points="272.864,218.975 290.946,197.122 292.482,198.584 274.595,220.6 				"/>
				<path style="fill:#CC8B75;" d="M274.305,217.846c0,0,2.845-8.084,3.488-9.807c0.643-1.723,1.729-4.724,2.164-4.796
					c0.435-0.072,2.043,0.133,0.097,5.279c-1.946,5.146,2.531,1.907,2.531,1.907l3.931-4.503c0,0,3.941,10.505,2.044,13.697
					c-2.048,3.445-6.638,8.787-6.638,8.787l-8.654-9.27L274.305,217.846z"/>
			</g>
			<path style="fill:#B26752;" d="M249.906,182.332c-0.549,0.033-1.068,0.376-1.314,0.867c-0.246,0.492-0.208,1.113,0.095,1.571
				c0.303,0.458,0.86,0.736,1.409,0.703c0.324-0.02,0.648-0.147,0.872-0.383c0.38-0.401,0.409-1.024,0.298-1.565
				c-0.066-0.322-0.18-0.648-0.413-0.88c-0.232-0.233-0.605-0.348-0.901-0.205"/>
			<g>
				<path style="fill:#263238;" d="M251.623,184.124c0.031,0.135-1.017,0.336-2.126-0.245c-1.115-0.571-1.554-1.543-1.426-1.596
					c0.127-0.083,0.694,0.642,1.666,1.133C250.698,183.928,251.618,183.972,251.623,184.124z"/>
			</g>
			<g>
				<g>
					<path style="fill:#263238;" d="M256.62,173.964c0.008,0.478-0.363,0.872-0.829,0.88c-0.465,0.008-0.85-0.372-0.858-0.85
						c-0.008-0.478,0.363-0.872,0.828-0.88C256.227,173.105,256.612,173.486,256.62,173.964z"/>
				</g>
				<g>
					<g>
						<path style="fill:#263238;" d="M257.439,173.615c-0.107,0.114-0.739-0.419-1.648-0.453c-0.908-0.048-1.583,0.426-1.68,0.303
							c-0.047-0.055,0.061-0.263,0.357-0.478c0.289-0.214,0.78-0.414,1.346-0.388c0.566,0.026,1.039,0.269,1.309,0.508
							C257.399,173.347,257.491,173.564,257.439,173.615z"/>
					</g>
				</g>
			</g>
			<g>
				<path style="fill:#263238;" d="M247.086,170.752c-0.027,0.148-0.859,0.095-1.839,0.291c-0.983,0.183-1.736,0.541-1.816,0.414
					c-0.083-0.109,0.621-0.718,1.717-0.925C246.242,170.317,247.122,170.62,247.086,170.752z"/>
			</g>
		</g>
		<g>
			<path style="fill:#EBEBEB;" d="M300.212,290.42c-4.796-2.823-10.559-3.966-16.07-3.186c-5.51,0.78-10.73,3.478-14.553,7.522
				c-2.756-4.393-7.523-7.467-12.662-8.165c-5.139-0.698-10.553,0.992-14.382,4.491c-0.98-7.379-4.489-14.628-10.493-19.028
				c-6.004-4.401-14.635-5.448-21.003-1.594l-9.004,22.601l32.238,13.07l42.66,3.118L300.212,290.42z"/>
			<g>
				<path style="fill:#E0E0E0;" d="M211.05,270.46c-0.068-0.1,0.845-0.96,2.931-1.849c2.064-0.875,5.418-1.648,9.545-1.043
					c2.051,0.303,4.272,0.947,6.494,2.051c2.213,1.122,4.392,2.733,6.296,4.795c3.848,4.109,6.593,9.973,7.499,16.499l-2.133-0.776
					c2.54-2.332,5.837-4.008,9.427-4.672c3.951-0.769,8.063-0.155,11.462,1.498c3.427,1.621,6.204,4.196,8.035,7.156l-1.889-0.187
					c3.596-3.707,7.956-5.964,12.027-7.009c4.096-1.058,7.876-0.911,10.841-0.339c2.984,0.578,5.191,1.57,6.61,2.352
					c1.42,0.797,2.08,1.381,2.018,1.485c-0.075,0.128-0.865-0.228-2.341-0.78c-1.476-0.539-3.665-1.271-6.513-1.617
					c-2.835-0.341-6.345-0.285-10.073,0.837c-3.713,1.108-7.639,3.302-10.823,6.721l-1.043,1.12l-0.846-1.307
					c-1.638-2.531-4.095-4.745-7.088-6.123c-2.977-1.405-6.467-1.909-9.899-1.246c-3.113,0.574-5.979,2.021-8.176,4.002l-1.819,1.64
					l-0.314-2.417c-0.786-6.052-3.228-11.495-6.624-15.328c-1.686-1.931-3.603-3.449-5.561-4.545
					c-1.975-1.082-3.981-1.774-5.853-2.16c-3.767-0.773-6.917-0.319-8.962,0.251C212.214,270.047,211.148,270.629,211.05,270.46z"/>
			</g>
		</g>
	</g>
</g>
<g id="Speech_Bubble">
	<g>
		<g>
			<g>
				<path style="fill:#E8505B;" d="M199.117,139.073c0.027-0.041,0.731,0.367,1.577,1.53c0.815,1.143,1.749,3.178,1.498,5.798
					c-0.228,2.572-1.674,5.599-4.47,7.653c-1.38,1.019-3.093,1.794-4.984,2.005c-1.893,0.216-3.901-0.183-5.667-1.123
					c-1.769-0.937-3.23-2.363-4.126-4.046c-0.898-1.683-1.208-3.551-1.088-5.27c0.115-1.726,0.649-3.32,1.432-4.635
					c0.775-1.326,1.795-2.355,2.825-3.122c2.076-1.552,4.151-2.082,5.538-2.288c1.41-0.186,2.194-0.066,2.191-0.011
					c0.003,0.088-0.775,0.109-2.117,0.41c-1.322,0.319-3.27,0.941-5.16,2.471c-0.938,0.755-1.852,1.741-2.528,2.971
					c-0.687,1.222-1.144,2.692-1.223,4.263c-0.084,1.565,0.22,3.241,1.029,4.729c0.803,1.484,2.12,2.765,3.715,3.609
					c1.594,0.848,3.388,1.208,5.068,1.029c1.688-0.174,3.252-0.854,4.532-1.768c2.593-1.838,4.003-4.598,4.301-6.96
					c0.324-2.397-0.43-4.338-1.106-5.495C199.653,139.65,199.052,139.14,199.117,139.073z"/>
			</g>
			<g>
				<path style="fill:#E8505B;" d="M189.706,132.558c0.198-0.351,2.14,0.952,4.32,2.788l0.459,0.387l-0.456,0.4
					c-0.085,0.075-0.176,0.154-0.268,0.234c-2.281,1.985-4.282,3.418-4.471,3.201c-0.189-0.217,1.506-2.002,3.787-3.987
					c0.092-0.08,0.183-0.159,0.269-0.233l0.003,0.786C191.189,134.27,189.601,132.669,189.706,132.558z"/>
			</g>
		</g>
		<g>
			<path style="fill:#263238;" d="M218.769,168.247c0.022,0.017-0.278-0.049-0.882-0.188c-0.639-0.148-1.542-0.357-2.704-0.626
				c-2.381-0.552-5.958-1.36-10.481-2.475l0.231-0.036c-3.095,1.996-7.303,3.615-12.191,3.706c-2.431-0.001-5.006-0.286-7.577-1.085
				c-2.569-0.794-5.097-2.115-7.396-3.901c-4.599-3.544-8.187-9.237-8.966-15.798c-0.398-3.258-0.136-6.685,0.878-9.967
				c1.032-3.273,2.813-6.376,5.214-8.986c4.934-5.513,12.336-8.107,19.069-7.61c3.381,0.22,6.619,1.171,9.448,2.664
				c2.835,1.491,5.261,3.513,7.165,5.807c3.85,4.608,5.439,10.207,5.455,15.092c0.013,4.934-1.547,9.158-3.436,12.23l0.003-0.283
				c2.053,3.698,3.596,6.62,4.633,8.552c0.504,0.941,0.895,1.671,1.173,2.189C218.664,168.021,218.789,168.263,218.769,168.247
				c-0.021-0.016-0.186-0.288-0.491-0.797c-0.313-0.524-0.755-1.262-1.323-2.213c-1.15-1.924-2.814-4.66-4.845-8.166l-0.081-0.14
				l0.085-0.144c1.784-3.038,3.231-7.16,3.16-11.937c-0.075-4.732-1.659-10.106-5.394-14.512c-3.659-4.401-9.468-7.673-15.981-8.051
				c-6.453-0.451-13.515,2.036-18.236,7.31c-2.296,2.497-4.002,5.461-4.994,8.589c-0.973,3.136-1.232,6.416-0.862,9.538
				c0.725,6.282,4.132,11.757,8.531,15.196c2.198,1.732,4.62,3.024,7.089,3.811c2.471,0.792,4.953,1.092,7.306,1.122
				c4.729-0.034,8.832-1.54,11.887-3.43l0.11-0.068l0.121,0.032c4.323,1.145,7.743,2.124,10.146,2.795
				c1.19,0.332,2.115,0.59,2.77,0.773C218.404,168.132,218.747,168.23,218.769,168.247z"/>
		</g>
	</g>
</g>
<g id="Arrows">
	<g>
		<g>
			<path style="fill:#263238;" d="M172.714,377.263c-0.01,0.035-0.531-0.096-1.517-0.376c-0.491-0.143-1.104-0.31-1.818-0.538
				c-0.712-0.25-1.527-0.535-2.442-0.856c-3.644-1.357-8.849-3.591-14.845-7.148c-3.005-1.762-6.198-3.859-9.526-6.248
				c-3.294-2.434-6.743-5.138-10.173-8.215c-3.421-3.084-6.889-6.463-10.258-10.177c-3.352-3.729-6.633-7.76-9.755-12.065
				c-3.102-4.323-5.847-8.74-8.316-13.105c-2.414-4.397-4.534-8.752-6.311-13.004c-3.601-8.491-5.813-16.532-7.244-23.34
				c-1.467-6.815-1.925-12.447-2.28-16.315c-0.078-1.921-0.139-3.423-0.181-4.475c-0.03-1.023-0.028-1.56,0.008-1.561
				c0.036-0.001,0.104,0.533,0.202,1.551c0.088,1.046,0.214,2.541,0.376,4.451c0.478,3.846,1.046,9.439,2.596,16.195
				c1.515,6.75,3.785,14.713,7.408,23.121c1.788,4.211,3.911,8.524,6.318,12.881c2.463,4.325,5.192,8.703,8.271,12.994
				c3.098,4.273,6.349,8.278,9.666,11.989c3.335,3.696,6.763,7.065,10.143,10.147c3.389,3.074,6.794,5.785,10.043,8.233
				c3.283,2.403,6.431,4.521,9.393,6.313c5.909,3.614,11.032,5.935,14.613,7.402c0.898,0.353,1.699,0.667,2.397,0.941
				c0.696,0.247,1.29,0.457,1.779,0.631C172.222,377.031,172.724,377.228,172.714,377.263z"/>
		</g>
		<g>
			<path style="fill:#263238;" d="M164.066,379.535c-0.044-0.28,4.417-1.212,10.023-2.1l-0.324,0.842
				c-0.055-0.068-0.114-0.141-0.174-0.214c-3.656-4.505-6.439-8.303-6.215-8.484c0.223-0.181,3.368,3.323,7.024,7.828
				c0.059,0.073,0.119,0.146,0.173,0.214l0.57,0.703l-0.894,0.139C168.642,379.337,164.11,379.815,164.066,379.535z"/>
		</g>
	</g>
	<g>
		<g>
			<path style="fill:#263238;" d="M405.785,204.439c0.017-0.005,0.076,0.141,0.174,0.43c0.099,0.313,0.235,0.743,0.41,1.294
				c0.171,0.572,0.396,1.277,0.625,2.119c0.207,0.852,0.445,1.831,0.713,2.93c0.987,4.423,2.113,10.926,2.455,19.042
				c0.191,4.055,0.175,8.505-0.04,13.274c-0.28,4.764-0.725,9.851-1.543,15.158c-0.832,5.302-1.923,10.837-3.401,16.49
				c-1.504,5.645-3.348,11.414-5.561,17.202c-2.242,5.78-4.802,11.272-7.487,16.461c-1.409,2.56-2.747,5.101-4.238,7.486
				c-1.41,2.434-2.946,4.717-4.426,6.958c-5.987,8.924-12.419,16.208-18.145,21.947c-5.71,5.778-10.908,9.82-14.451,12.639
				c-1.826,1.309-3.252,2.331-4.242,3.041c-0.476,0.328-0.847,0.583-1.118,0.769c-0.255,0.168-0.391,0.247-0.401,0.233
				c-0.01-0.015,0.105-0.123,0.339-0.319c0.256-0.206,0.606-0.489,1.056-0.852c0.961-0.745,2.344-1.817,4.116-3.191
				c3.456-2.91,8.562-7.023,14.177-12.838c5.632-5.777,11.967-13.068,17.872-21.964c1.459-2.234,2.977-4.509,4.368-6.932
				c1.473-2.374,2.794-4.903,4.188-7.449c2.656-5.163,5.192-10.62,7.42-16.363c2.198-5.75,4.037-11.479,5.545-17.085
				c1.482-5.614,2.586-11.111,3.439-16.377c0.84-5.271,1.314-10.324,1.629-15.059c0.251-4.739,0.309-9.164,0.166-13.198
				c-0.245-8.075-1.254-14.557-2.115-18.987c-0.231-1.102-0.437-2.084-0.617-2.939c-0.206-0.838-0.382-1.552-0.526-2.137
				c-0.132-0.563-0.234-1.001-0.309-1.32C405.792,204.6,405.767,204.444,405.785,204.439z"/>
		</g>
		<g>
			<path style="fill:#263238;" d="M413.513,211.432c-0.21,0.19-3.935-3.596-8.373-8.505l0.882-0.189
				c-0.031,0.097-0.064,0.201-0.098,0.306c-2.068,6.44-3.965,11.588-4.239,11.5c-0.274-0.088,1.18-5.378,3.248-11.819
				c0.034-0.105,0.067-0.209,0.098-0.306l0.277-0.862l0.605,0.672C410.34,207.148,413.723,211.242,413.513,211.432z"/>
		</g>
	</g>
	<g>
		<g>
			<path style="fill:#263238;" d="M334.897,99.34c-0.012,0.014-0.182-0.096-0.505-0.323c-0.334-0.243-0.803-0.584-1.413-1.028
				c-0.62-0.462-1.379-1.029-2.273-1.696c-0.897-0.67-2.016-1.327-3.227-2.134c-4.877-3.168-12.321-7.194-22.035-10.943
				c-4.867-1.84-10.273-3.663-16.174-5.291c-2.951-0.808-6.016-1.602-9.199-2.298c-1.59-0.356-3.208-0.697-4.853-1.007
				c-0.821-0.16-1.652-0.308-2.483-0.444c-0.842-0.105-1.69-0.21-2.543-0.316c-13.597-2.007-28.86-2.215-44.567,0.05
				c-15.717,2.242-30.312,6.665-42.925,12.128c-12.635,5.453-23.276,11.946-31.657,18.095c-1.041,0.78-2.057,1.541-3.048,2.284
				c-0.988,0.745-1.974,1.442-2.843,2.231c-1.782,1.523-3.462,2.959-5.034,4.303c-0.393,0.336-0.779,0.666-1.158,0.99
				c-0.357,0.349-0.706,0.691-1.05,1.027c-0.687,0.671-1.348,1.317-1.982,1.936c-1.268,1.235-2.428,2.365-3.473,3.382
				c-1.938,2.154-3.448,3.833-4.487,4.988c-0.512,0.554-0.907,0.979-1.187,1.283c-0.272,0.285-0.418,0.426-0.432,0.415
				c-0.014-0.011,0.105-0.174,0.35-0.482c0.262-0.319,0.63-0.768,1.109-1.35c1.008-1.188,2.472-2.914,4.352-5.13
				c1.029-1.04,2.17-2.195,3.419-3.458c0.626-0.632,1.28-1.29,1.959-1.975c0.34-0.343,0.687-0.692,1.04-1.047
				c0.376-0.331,0.759-0.667,1.149-1.01c1.563-1.369,3.233-2.832,5.004-4.383c0.865-0.802,1.847-1.512,2.832-2.271
				c0.988-0.755,2.002-1.53,3.041-2.324c8.366-6.255,19.027-12.851,31.714-18.384c12.664-5.543,27.343-10.022,43.161-12.278
				c15.806-2.281,31.179-2.041,44.85,0.031c0.858,0.11,1.71,0.22,2.557,0.329c0.848,0.142,1.682,0.294,2.509,0.459
				c1.656,0.319,3.28,0.669,4.877,1.035c3.197,0.716,6.271,1.53,9.231,2.36c5.917,1.671,11.335,3.543,16.208,5.436
				c9.727,3.855,17.161,8.004,21.991,11.291c1.199,0.837,2.303,1.523,3.186,2.222c0.874,0.701,1.616,1.296,2.221,1.781
				c0.583,0.479,1.032,0.848,1.351,1.111C334.76,99.189,334.909,99.326,334.897,99.34z"/>
		</g>
		<g>
			<path style="fill:#263238;" d="M126.681,116.554c0.281,0.038-0.196,5.327-1.068,11.887l-0.715-0.55
				c0.094-0.039,0.195-0.081,0.297-0.123c6.249-2.59,11.402-4.473,11.512-4.207c0.11,0.266-4.865,2.58-11.114,5.169
				c-0.102,0.042-0.203,0.084-0.297,0.123l-0.836,0.346l0.121-0.896C125.468,121.745,126.401,116.517,126.681,116.554z"/>
		</g>
	</g>
</g>
</svg>
