<svg width="327" height="328" viewBox="0 0 327 328" fill="none" xmlns="http://www.w3.org/2000/svg">
<path d="M83.8312 286.25H184.948H218.18C233.338 286.25 247.79 279.854 257.964 268.644L266.351 259.403C278.534 245.979 279.603 225.867 268.91 211.232C258.48 196.958 259.213 177.412 270.683 163.956L272.809 161.462C289.754 141.581 284.835 111.291 262.464 97.7663L194.05 56.4039C168.973 41.243 136.499 47.1448 118.391 70.1541L114.163 75.5264C106.831 84.8441 95.9182 90.6676 84.0797 91.5809L76.9121 92.1338C54.9059 93.8315 39.5349 114.618 44.4023 136.097C47.9591 151.792 40.6764 167.942 26.5442 175.697L25.4017 176.324C6.34325 186.783 -0.0112519 211.058 11.4875 229.479L27.4149 254.994C39.5493 274.433 60.8779 286.25 83.8312 286.25Z" fill="#EEEEEE"/>
<path d="M253.11 241.572C241.914 240.361 227.643 268.299 222.096 282.041H230.416C242.519 269.308 264.305 242.782 253.11 241.572Z" fill="#3A3A3A"/>
<path d="M251.218 200.346C229.13 202.161 215.792 255.062 211.884 281.285H226.256C243.78 253.549 273.306 198.53 251.218 200.346Z" fill="white"/>
<path fill-rule="evenodd" clip-rule="evenodd" d="M256.592 202.729C255.549 201.593 253.884 200.963 251.287 201.177C246.101 201.603 241.315 205.039 236.959 210.586C232.612 216.12 228.787 223.638 225.509 231.968C219.113 248.219 214.865 267.387 212.853 280.451H225.796C234.52 266.605 246.097 246.192 252.818 229.423C256.22 220.935 258.329 213.494 258.267 208.336C258.236 205.76 257.665 203.896 256.592 202.729ZM254.366 230.044C247.527 247.107 235.734 267.844 226.961 281.73L226.715 282.118H210.917L211.059 281.162C213.019 268.011 217.344 248.164 223.958 231.357C227.264 222.957 231.159 215.271 235.648 209.556C240.127 203.853 245.292 199.997 251.15 199.515C254.075 199.275 256.319 199.967 257.82 201.601C259.293 203.204 259.901 205.556 259.934 208.316C260.001 213.83 257.775 221.537 254.366 230.044Z" fill="#3A3A3A"/>
<path fill-rule="evenodd" clip-rule="evenodd" d="M245.754 220.666C247.763 215.979 249.626 211.618 251.229 207.859L249.695 207.205C247.873 211.479 245.714 216.529 243.388 221.954C241.64 226.03 239.797 230.317 237.932 234.645L233.815 226.082L232.313 226.804L237.057 236.673C234.615 242.334 232.154 248.016 229.835 253.342C228.591 256.196 227.388 258.948 226.25 261.538L223.646 253.42L222.058 253.929L225.238 263.84C223.101 268.688 221.242 272.853 219.843 275.903C219.129 277.459 218.537 278.719 218.089 279.631C217.865 280.087 217.68 280.45 217.536 280.716C217.464 280.849 217.406 280.952 217.359 281.028C217.321 281.091 217.301 281.12 217.295 281.128C217.293 281.131 217.293 281.131 217.295 281.129L218.575 282.196C218.708 282.037 218.858 281.777 219.003 281.509C219.162 281.215 219.357 280.831 219.586 280.366C220.043 279.435 220.642 278.159 221.358 276.598C222.791 273.476 224.7 269.197 226.891 264.222C228.243 261.153 229.703 257.817 231.225 254.325L240.554 250.668L239.946 249.116L232.165 252.166C234.295 247.269 236.526 242.114 238.738 236.985C240.804 232.195 242.854 227.428 244.791 222.913L253.068 219.263L252.395 217.737L245.754 220.666Z" fill="#3A3A3A"/>
<path d="M93.3817 51.925C93.3817 46.4005 97.8602 41.9221 103.385 41.9221H217.185C222.71 41.9221 227.188 46.4005 227.188 51.925V274.443C227.188 279.968 222.71 284.446 217.185 284.446H103.385C97.8602 284.446 93.3817 279.968 93.3817 274.443V51.925Z" fill="white"/>
<path fill-rule="evenodd" clip-rule="evenodd" d="M92.5479 51.925C92.5479 45.9402 97.3995 41.0885 103.384 41.0885H217.185C223.17 41.0885 228.021 45.9402 228.021 51.925V274.443C228.021 280.428 223.17 285.28 217.185 285.28H103.384C97.3996 285.28 92.5479 280.428 92.5479 274.443V51.925ZM103.384 42.7557C98.3203 42.7557 94.215 46.8609 94.215 51.925V274.443C94.215 279.507 98.3203 283.613 103.384 283.613H217.185C222.249 283.613 226.354 279.507 226.354 274.443V51.925C226.354 46.8609 222.249 42.7557 217.185 42.7557H103.384Z" fill="#3A3A3A"/>
<path d="M133.678 50.053L129.341 41.9217H191.227L186.128 50.419C184.622 52.9298 181.909 54.466 178.981 54.466H141.033C137.955 54.466 135.127 52.7693 133.678 50.053Z" fill="#3A3A3A"/>
<path d="M225.547 46.9394H94.1694C98.5181 42.5907 102.672 41.7823 104.205 41.9216H215.511C220.864 41.9216 224.432 45.2668 225.547 46.9394Z" fill="#3A3A3A"/>
<path d="M225.483 279.691H95.0857C99.605 284.11 102.217 284.931 103.81 284.789H216.759C222.321 284.789 224.324 281.39 225.483 279.691Z" fill="#3A3A3A"/>
<path d="M108.386 93.9144C108.386 92.5333 109.506 91.4137 110.887 91.4137H199.246H203.491C205.965 91.4137 206.937 94.6227 204.878 95.9952L200.36 99.0071C199.664 99.4709 199.246 100.252 199.246 101.088V108.085V122.256C199.246 123.637 198.127 124.757 196.746 124.757H110.887C109.506 124.757 108.386 123.637 108.386 122.256V93.9144Z" fill="#EEEEEE"/>
<path d="M118.389 102.667C118.389 101.976 118.949 101.417 119.64 101.417H187.993C188.684 101.417 189.243 101.976 189.243 102.667C189.243 103.358 188.684 103.917 187.993 103.917H119.64C118.949 103.917 118.389 103.358 118.389 102.667Z" fill="white"/>
<path d="M118.389 113.504C118.389 112.813 118.949 112.253 119.64 112.253H152.149C152.84 112.253 153.4 112.813 153.4 113.504C153.4 114.194 152.84 114.754 152.149 114.754H119.64C118.949 114.754 118.389 114.194 118.389 113.504Z" fill="white"/>
<path d="M120.056 138.094H210.083C211.464 138.094 212.583 139.214 212.583 140.595V168.937C212.583 170.318 211.464 171.437 210.083 171.437H122.557C121.176 171.437 120.056 170.318 120.056 168.937V147.717C120.056 146.909 119.666 146.151 119.009 145.682L114.736 142.63C112.756 141.216 113.757 138.094 116.189 138.094H120.056Z" fill="#EEEEEE"/>
<path d="M131.726 150.181C131.726 149.491 132.286 148.931 132.977 148.931H201.33C202.021 148.931 202.581 149.491 202.581 150.181C202.581 150.872 202.021 151.431 201.33 151.431H132.977C132.286 151.431 131.726 150.872 131.726 150.181Z" fill="white"/>
<path d="M108.386 187.275C108.386 185.894 109.506 184.775 110.887 184.775H199.246H203.491C205.965 184.775 206.937 187.984 204.878 189.356L200.36 192.368C199.664 192.832 199.246 193.613 199.246 194.449V201.446V215.617C199.246 216.998 198.127 218.118 196.746 218.118H110.887C109.506 218.118 108.386 216.998 108.386 215.617V187.275Z" fill="#EEEEEE"/>
<path d="M120.056 196.862C120.056 196.171 120.616 195.611 121.307 195.611H189.66C190.351 195.611 190.911 196.171 190.911 196.862C190.911 197.552 190.351 198.112 189.66 198.112H121.307C120.616 198.112 120.056 197.552 120.056 196.862Z" fill="white"/>
<path d="M131.726 161.018C131.726 160.327 132.286 159.767 132.977 159.767H165.486C166.177 159.767 166.737 160.327 166.737 161.018C166.737 161.708 166.177 162.268 165.486 162.268H132.977C132.286 162.268 131.726 161.708 131.726 161.018Z" fill="white"/>
<path d="M120.056 231.455H210.083C211.464 231.455 212.583 232.575 212.583 233.956V262.298C212.583 263.679 211.464 264.798 210.083 264.798H122.557C121.176 264.798 120.056 263.679 120.056 262.298V241.022C120.056 240.246 119.695 239.514 119.08 239.04L115.047 235.938C113.155 234.482 114.184 231.455 116.572 231.455H120.056Z" fill="#EEEEEE"/>
<path d="M130.892 242.708C130.892 242.018 131.452 241.458 132.143 241.458H200.496C201.187 241.458 201.747 242.018 201.747 242.708C201.747 243.399 201.187 243.959 200.496 243.959H132.143C131.452 243.959 130.892 243.399 130.892 242.708Z" fill="white"/>
<path d="M120.056 207.698C120.056 207.008 120.616 206.448 121.307 206.448H172.155C172.846 206.448 173.405 207.008 173.405 207.698C173.405 208.389 172.846 208.948 172.155 208.948H121.307C120.616 208.948 120.056 208.389 120.056 207.698Z" fill="white"/>
<path d="M108.722 75.0897C108.722 73.7085 109.842 72.5889 111.223 72.5889H153.949C155.33 72.5889 156.449 73.7085 156.449 75.0897V75.2018C156.449 76.5829 155.33 77.7025 153.949 77.7025H111.223C109.842 77.7025 108.722 76.5829 108.722 75.2018V75.0897Z" fill="black"/>
<path fill-rule="evenodd" clip-rule="evenodd" d="M217.795 53.8391V60.6572H216.127V53.8391H217.795Z" fill="#3A3A3A"/>
<path fill-rule="evenodd" clip-rule="evenodd" d="M213.533 54.6913V60.6572H211.866V54.6913H213.533Z" fill="#3A3A3A"/>
<path fill-rule="evenodd" clip-rule="evenodd" d="M209.272 56.3958V60.6572H207.604V56.3958H209.272Z" fill="#3A3A3A"/>
<path fill-rule="evenodd" clip-rule="evenodd" d="M205.011 58.1004V60.6572H203.343V58.1004H205.011Z" fill="#3A3A3A"/>
<path d="M130.892 253.545C130.892 252.854 131.452 252.295 132.143 252.295H139.645C140.336 252.295 140.895 252.854 140.895 253.545C140.895 254.236 140.336 254.795 139.645 254.795H132.143C131.452 254.795 130.892 254.236 130.892 253.545Z" fill="white"/>
<path d="M71.2853 140.989C59.8355 149.097 64.6478 163.509 66.805 169.094L65.8599 180.49C66.8387 184.078 70.3894 191.253 76.7615 191.253C83.1337 191.253 86.0542 185.128 86.718 182.065L85.7224 173.418C93.1897 170.715 93.6874 159.906 93.1896 151.258C92.5985 140.989 81.3707 133.848 71.2853 140.989Z" fill="#EFCB96"/>
<path d="M76.1545 187.17C83.6315 187.17 87.1404 182.573 87.9602 180.275C102.225 180.275 114.031 190.125 119.442 197.02C124.853 203.915 145.021 240.359 140.102 255.134C136.167 266.954 126.657 268.76 121.41 267.939L122.264 283.326C122.334 284.598 121.323 285.669 120.05 285.669H48.1162C40.5736 286.161 24.1112 286.358 18.6019 283.206C11.7153 279.266 5.32052 259.074 18.6019 219.182C29.227 187.269 54.1829 179.947 65.3327 180.275C65.8246 182.573 68.6776 187.17 76.1545 187.17Z" fill="black"/>
<path d="M40.3327 285.697C28.4738 271.227 15.9355 266.063 11.1487 265.29C11.1487 269.928 13.4649 278.741 17.634 282.915C20.9693 286.254 34.1562 286.161 40.3327 285.697Z" fill="#3A3A3A"/>
<path d="M132.054 266.218C139.836 263.25 141.164 252.613 140.855 247.666C133.814 251.006 124.333 262.353 120.473 267.609C121.091 268.382 124.272 269.186 132.054 266.218Z" fill="#3A3A3A"/>
<path d="M75.1712 232.479C71.7279 233.957 46.1489 245.941 34.3433 251.687C35.819 249.224 41.7218 245.284 43.1975 243.807C44.6732 242.329 50.0842 225.092 50.0842 227.554C50.0842 230.017 47.1327 241.344 48.6084 241.344C50.0842 241.344 70.7441 232.479 75.1712 232.479Z" fill="#3A3A3A"/>
<path d="M85.5012 246.762C64.6445 274.735 47.6246 284.684 41.7218 286.161H52.0518C69.7603 272.371 81.7299 254.149 85.5012 246.762Z" fill="#3A3A3A"/>
<path d="M111.08 241.837C111.867 251.293 118.622 263.178 121.902 267.939V272.371C114.425 264.098 111.572 248.568 111.08 241.837Z" fill="#3A3A3A"/>
<path d="M120.426 228.54C123.181 230.116 128.133 233.793 130.264 235.435L122.394 226.077C122 227.653 120.918 228.375 120.426 228.54Z" fill="#3A3A3A"/>
<path d="M91.3402 210.443L87.5684 247.262C87.5183 247.751 87.9503 248.153 88.434 248.066L106.13 244.886C106.442 244.83 106.684 244.58 106.731 244.266L111.928 209.26C111.998 208.791 111.616 208.379 111.145 208.413L92.0226 209.78C91.6647 209.806 91.3768 210.085 91.3402 210.443Z" fill="white"/>
<path fill-rule="evenodd" clip-rule="evenodd" d="M111.092 207.675C112.035 207.608 112.798 208.432 112.659 209.369L107.461 244.375C107.368 245.003 106.885 245.502 106.261 245.614L88.5644 248.794C87.5972 248.968 86.7331 248.165 86.8334 247.187L90.6052 210.368C90.6784 209.653 91.254 209.094 91.9699 209.043L111.092 207.675ZM111.197 209.151L92.0752 210.518L88.3034 247.338L106 244.158L111.197 209.151Z" fill="#3A3A3A"/>
<path d="M116.983 228.54L111.08 237.404C103.21 237.897 101.734 233.464 103.21 226.57C104.39 221.054 108.784 220.988 110.588 221.645L111.572 217.705C116.983 222.137 116.983 226.405 116.983 228.54Z" fill="#EFCB96"/>
<path d="M67.1646 166.269L66.1727 176.068C65.8421 175.342 65.0816 173.237 64.6849 170.624C64.189 167.357 56.2535 154.836 58.7333 145.58C60.7172 138.176 66.1728 138.503 68.6526 139.592C70.1406 136.87 79.0678 127.614 91.9629 128.703C104.858 129.792 106.346 148.302 95.9306 151.025C87.5984 153.202 78.2412 151.932 74.6042 151.025C74.2735 151.751 73.3146 154.182 72.1243 158.102C70.6364 163.002 70.6364 164.091 70.1405 160.824C69.6445 157.558 67.6606 151.569 65.1808 157.558C63.1969 162.349 65.6767 165.361 67.1646 166.269Z" fill="#3A3A3A"/>
<path d="M74.3691 173.221C77.7817 175.233 83.6395 174.207 85.8514 173.369L86.2208 176.698C81.2915 177.905 76.107 174.898 74.3691 173.221Z" fill="#3A3A3A"/>
<path d="M82.5491 227.555C81.3685 230.706 79.1058 232.808 78.1219 233.464L84.5167 243.314C86.4843 241.344 88.9438 241.344 94.3547 238.882C99.7657 236.419 101.241 227.555 99.7657 222.63C98.5851 218.69 91.7313 221.645 88.9438 223.615L89.4357 218.197C85.9924 219.675 84.0248 223.615 82.5491 227.555Z" fill="#EFCB96"/>
<path d="M251.341 84.4308C251.341 83.7418 251.895 83.1832 252.578 83.1832H287.624C288.307 83.1832 288.861 83.7418 288.861 84.4308V108.612C288.861 109.301 288.307 109.86 287.624 109.86H252.578C251.895 109.86 251.341 109.301 251.341 108.612V84.4308Z" fill="white"/>
<path fill-rule="evenodd" clip-rule="evenodd" d="M250.929 84.4308C250.929 83.5121 251.667 82.7674 252.578 82.7674H287.624C288.535 82.7674 289.273 83.5121 289.273 84.4308V108.612C289.273 109.531 288.535 110.276 287.624 110.276H252.578C251.667 110.276 250.929 109.531 250.929 108.612V84.4308ZM252.578 83.5991C252.122 83.5991 251.753 83.9715 251.753 84.4308V108.612C251.753 109.071 252.122 109.444 252.578 109.444H287.624C288.079 109.444 288.449 109.071 288.449 108.612V84.4308C288.449 83.9715 288.079 83.5991 287.624 83.5991H252.578Z" fill="#3A3A3A"/>
<path d="M252.532 109.86H287.67C288.062 109.86 288.233 109.361 287.925 109.117L270.866 95.5775C270.417 95.2213 269.785 95.2213 269.336 95.5775L252.277 109.117C251.969 109.361 252.14 109.86 252.532 109.86Z" fill="white"/>
<path fill-rule="evenodd" clip-rule="evenodd" d="M270.611 95.9043C270.312 95.6669 269.89 95.6669 269.591 95.9043L252.532 109.444H287.67L270.611 95.9043ZM269.081 95.2507C269.68 94.7758 270.522 94.7758 271.121 95.2507L288.18 108.79C288.795 109.278 288.453 110.275 287.67 110.275H252.532C251.749 110.275 251.407 109.278 252.022 108.79L269.081 95.2507Z" fill="#3A3A3A"/>
<path d="M287.742 83.1832H252.46C252.077 83.1832 251.901 83.6647 252.193 83.9156L269.298 98.6232C269.761 99.0208 270.441 99.0208 270.903 98.6232L288.009 83.9156C288.301 83.6647 288.125 83.1832 287.742 83.1832Z" fill="black"/>
<path fill-rule="evenodd" clip-rule="evenodd" d="M251.925 84.2321C251.342 83.7304 251.694 82.7674 252.46 82.7674H287.742C288.509 82.7674 288.86 83.7304 288.277 84.2321L271.171 98.9397C270.555 99.4698 269.648 99.4698 269.031 98.9397L251.925 84.2321ZM287.742 83.5991L252.46 83.5991L269.566 98.3068C269.874 98.5718 270.328 98.5718 270.636 98.3068L287.742 83.5991Z" fill="#3A3A3A"/>
<path d="M248.732 149.83C248.732 149.329 249.142 148.923 249.647 148.923H275.55C276.055 148.923 276.465 149.329 276.465 149.83V167.417C276.465 167.918 276.055 168.324 275.55 168.324H249.647C249.142 168.324 248.732 167.918 248.732 167.417V149.83Z" fill="white"/>
<path fill-rule="evenodd" clip-rule="evenodd" d="M248.428 149.83C248.428 149.162 248.973 148.62 249.647 148.62H275.55C276.224 148.62 276.769 149.162 276.769 149.83V167.417C276.769 168.085 276.224 168.626 275.55 168.626H249.647C248.973 168.626 248.428 168.085 248.428 167.417V149.83ZM249.647 149.225C249.31 149.225 249.037 149.496 249.037 149.83V167.417C249.037 167.751 249.31 168.021 249.647 168.021H275.55C275.887 168.021 276.16 167.751 276.16 167.417V149.83C276.16 149.496 275.887 149.225 275.55 149.225H249.647Z" fill="#3A3A3A"/>
<path d="M249.612 168.324H275.585C275.874 168.324 276 167.961 275.773 167.784L263.164 157.937C262.832 157.678 262.365 157.678 262.033 157.937L249.424 167.784C249.197 167.961 249.323 168.324 249.612 168.324Z" fill="white"/>
<path fill-rule="evenodd" clip-rule="evenodd" d="M262.975 158.175C262.754 158.002 262.443 158.002 262.222 158.175L249.613 168.021H275.585L262.975 158.175ZM261.845 157.699C262.287 157.354 262.91 157.354 263.352 157.699L275.961 167.546C276.416 167.901 276.163 168.626 275.585 168.626H249.613C249.034 168.626 248.781 167.901 249.236 167.546L261.845 157.699Z" fill="#3A3A3A"/>
<path d="M275.637 148.923H249.56C249.276 148.923 249.146 149.273 249.362 149.455L262.006 160.152C262.347 160.441 262.85 160.441 263.192 160.152L275.835 149.455C276.051 149.273 275.921 148.923 275.637 148.923Z" fill="black"/>
<path fill-rule="evenodd" clip-rule="evenodd" d="M249.164 149.686C248.733 149.321 248.993 148.62 249.56 148.62H275.638C276.204 148.62 276.464 149.321 276.033 149.686L263.389 160.382C262.934 160.768 262.264 160.768 261.808 160.382L249.164 149.686ZM275.638 149.225L249.56 149.225L262.203 159.922C262.431 160.114 262.766 160.114 262.994 159.922L275.638 149.225Z" fill="#3A3A3A"/>
<path d="M56.6116 71.7256L55.3711 79.5698C55.2956 80.0471 54.9603 80.4424 54.5018 80.5948L48.6697 82.5325C47.415 82.9494 47.521 84.7582 48.8159 85.0256L54.9448 86.2914C55.3923 86.3838 55.7578 86.7056 55.9061 87.1377L58.1237 93.5964C58.5406 94.8106 60.281 94.7407 60.5991 93.497L62.3597 86.6135C62.4631 86.2093 62.7551 85.8799 63.144 85.7288L68.4529 83.6656C69.6488 83.2008 69.5105 81.4658 68.256 81.1964L62.8094 80.0268C62.372 79.9329 62.0142 79.6196 61.8635 79.1984L59.1059 71.4919C58.6549 70.2315 56.8207 70.4034 56.6116 71.7256Z" fill="black"/>
<path d="M42.2905 112.78L43.6424 114.6C43.9306 114.988 43.9783 115.504 43.7661 115.938L43.2082 117.08C42.6258 118.272 44.0018 119.463 45.098 118.716L46.2192 117.952C46.5968 117.695 47.0822 117.656 47.496 117.849L49.2492 118.671C50.4074 119.214 51.5662 117.925 50.9039 116.831L49.8005 115.008C49.5845 114.651 49.5539 114.212 49.7183 113.829L50.2171 112.666C50.7248 111.482 49.3789 110.365 48.3091 111.082L47.3372 111.734C46.9656 111.983 46.4917 112.022 46.0841 111.837L43.8616 110.831C42.646 110.281 41.4947 111.709 42.2905 112.78Z" fill="black"/>
<path fill-rule="evenodd" clip-rule="evenodd" d="M189.035 112.123C188.133 112.908 187.277 113.729 186.466 114.58L185.161 113.336C186.01 112.445 186.907 111.586 187.851 110.764L189.035 112.123ZM184.134 117.263C183.393 118.199 182.7 119.162 182.056 120.148L180.547 119.162C181.22 118.131 181.945 117.123 182.721 116.144L184.134 117.263ZM194.798 107.975C193.764 108.583 192.771 109.231 191.82 109.915L190.767 108.452C191.763 107.735 192.803 107.057 193.885 106.421L194.798 107.975ZM180.247 123.21C179.686 124.265 179.177 125.338 178.72 126.423L177.059 125.724C177.536 124.589 178.068 123.467 178.655 122.364L180.247 123.21ZM201.23 104.947C200.097 105.361 199.002 105.819 197.944 106.316L197.177 104.685C198.283 104.165 199.428 103.687 200.611 103.254L201.23 104.947ZM177.491 129.761C177.129 130.901 176.824 132.048 176.574 133.195L174.813 132.812C175.074 131.61 175.394 130.409 175.773 129.216L177.491 129.761ZM208.095 103.084C206.904 103.303 205.746 103.567 204.621 103.872L204.15 102.132C205.323 101.814 206.529 101.54 207.768 101.311L208.095 103.084ZM175.987 136.696C175.917 137.287 175.863 137.876 175.823 138.462C175.777 139.144 175.748 139.798 175.734 140.424L173.932 140.384C173.946 139.729 173.977 139.049 174.025 138.341C174.066 137.724 174.124 137.105 174.197 136.485L175.987 136.696ZM213.412 102.42C212.811 102.461 212.216 102.512 211.628 102.574L211.44 100.781C212.049 100.717 212.666 100.664 213.29 100.621L213.412 102.42ZM175.865 144.297C176.008 145.75 176.256 146.99 176.576 148.044L174.851 148.568C174.492 147.386 174.224 146.028 174.071 144.474L175.865 144.297ZM176.89 151.575C176.064 152.04 175.223 152.653 174.394 153.443L173.15 152.138C174.083 151.249 175.045 150.545 176.006 150.004L176.89 151.575ZM172.331 155.85C172.032 156.271 171.739 156.72 171.452 157.201C171.19 157.64 170.951 158.085 170.735 158.535L169.11 157.754C169.349 157.256 169.614 156.763 169.905 156.276C170.215 155.756 170.534 155.267 170.861 154.807L172.331 155.85ZM169.672 161.369C169.397 162.357 169.209 163.357 169.096 164.359L167.305 164.156C167.428 163.066 167.633 161.971 167.936 160.885L169.672 161.369ZM182.733 150.424C181.877 150.266 180.857 150.258 179.748 150.487L179.383 148.722C180.713 148.447 181.968 148.45 183.06 148.652L182.733 150.424ZM178.17 151.321C179.014 152.428 179.973 153.042 180.894 153.334L180.351 155.052C179.06 154.644 177.795 153.803 176.736 152.414L178.17 151.321ZM168.967 167.42C168.993 168.46 169.087 169.488 169.232 170.489L167.449 170.748C167.294 169.682 167.193 168.583 167.165 167.465L168.967 167.42ZM185.166 152.25C185.254 152.073 185.259 151.875 185.06 151.599L186.524 150.547C187.039 151.262 187.217 152.17 186.78 153.051C186.41 153.798 185.711 154.386 184.908 154.774L184.125 153.15C184.683 152.881 185.023 152.537 185.166 152.25ZM169.84 173.524C170.107 174.574 170.419 175.568 170.752 176.488L169.058 177.102C168.705 176.13 168.376 175.079 168.093 173.968L169.84 173.524ZM171.955 179.336C172.201 179.839 172.444 180.291 172.673 180.685L171.117 181.593C170.863 181.159 170.6 180.668 170.336 180.128L171.955 179.336Z" fill="#3A3A3A"/>
<path fill-rule="evenodd" clip-rule="evenodd" d="M223.819 94.463L229.608 100.504L224.862 105.84L223.515 104.642L226.489 101.298C225.422 101.24 224.374 101.214 223.345 101.218L223.338 99.4157C224.253 99.4122 225.182 99.4317 226.125 99.475L222.517 95.7102L223.819 94.463Z" fill="#3A3A3A"/>
</svg>
