<?xml version="1.0" encoding="utf-8"?>
<!-- Generator: Adobe Illustrator 27.5.0, SVG Export Plug-In . SVG Version: 6.00 Build 0)  -->
<svg version="1.1" xmlns="http://www.w3.org/2000/svg" xmlns:xlink="http://www.w3.org/1999/xlink" x="0px" y="0px"
	 viewBox="0 0 500 500" style="enable-background:new 0 0 500 500;" xml:space="preserve">
<g id="Background_Complete">
	<g>
		<rect x="129.057" y="64.531" style="fill:#EBEBEB;" width="30.202" height="40.508"/>
		<rect x="130.629" y="66.122" style="fill:#FAFAFA;" width="27.058" height="37.324"/>
		<rect x="139.398" y="79.033" style="fill:#E0E0E0;" width="10.33" height="11.804"/>
	</g>
	<g>
		<rect x="381.195" y="115.026" style="fill:#EBEBEB;" width="52.191" height="70"/>
		<rect x="383.911" y="117.777" style="fill:#FAFAFA;" width="46.758" height="64.498"/>
		<rect x="399.063" y="140.087" style="fill:#EBEBEB;" width="17.851" height="20.397"/>
	</g>
	<g>
		<rect x="53.562" y="90.545" style="fill:#E0E0E0;" width="50.854" height="68.207"/>
		<rect x="56.209" y="93.226" style="fill:#FAFAFA;" width="45.56" height="62.846"/>
		<g>
			<g>
				<path style="fill:#EBEBEB;" d="M93.792,135.497c0.189,0.632-0.094,1.398-0.941,2.163c-0.841,0.765-2.265,1.468-4.171,1.812
					c-1.9,0.348-4.274,0.272-6.783-0.512c-2.498-0.773-5.127-2.314-7.255-4.68c-2.104-2.389-3.329-5.179-3.806-7.751
					c-0.487-2.583-0.286-4.95,0.28-6.797c0.564-1.853,1.427-3.186,2.285-3.932c0.858-0.752,1.652-0.944,2.258-0.683
					c1.253,0.565,1.564,2.619,2.308,5.039c0.691,2.429,1.901,5.391,3.927,7.671c2.029,2.276,4.83,3.822,7.161,4.791
					C91.372,133.639,93.377,134.186,93.792,135.497z"/>
			</g>
			<g>
				<path style="fill:#E0E0E0;" d="M92.733,134.946c0.003,0.03-0.414,0.107-1.179,0.151c-0.764,0.046-1.881,0.019-3.238-0.203
					c-2.691-0.418-6.433-1.863-9.37-4.943c-2.93-3.088-4.187-6.897-4.471-9.606c-0.154-1.367-0.126-2.483-0.041-3.244
					c0.082-0.761,0.18-1.174,0.209-1.17c0.11,0.006-0.198,1.693,0.197,4.364c0.371,2.641,1.649,6.31,4.483,9.296
					c2.841,2.978,6.441,4.438,9.06,4.939C91.032,135.059,92.732,134.836,92.733,134.946z"/>
			</g>
			<path style="fill:#EBEBEB;" d="M74.108,115.65c0.439-0.847,1.019-2.798,1.223-3.73c0.821,0.203,1.641,0.406,2.462,0.609
				c-1.08,1.095-1.726,2.608-1.77,4.146"/>
		</g>
	</g>
</g>
<g id="Background_Simple" style="display:none;">
	<path style="display:inline;fill:#EBEBEB;" d="M444.127,185.771c-1.472,26.281-3.736,35.123-11.932,60.137
		c-11.445,34.929-14.218,49.546-29.71,71.381c-18.679,26.327-45.135,47.312-78.285,60.412
		c-47.304,18.693-99.386,22.406-148.341,8.605c-48.955-13.801-92.477-52.312-103.523-101.962
		c-5.475-24.613-0.594-54.651,21.125-67.459c17.71-10.444,40.208-6.005,59.803,0.219c19.595,6.224,40.126,14.027,60.14,9.32
		c21.455-5.047,37.127-23.428,48.324-42.413c11.197-18.985,19.75-39.886,34.693-56.087c28.002-30.36,82.507-44.289,118.233-15.662
		C414.655,112.261,447.157,131.691,444.127,185.771z"/>
</g>
<g id="Floor">
	<g>
		<g>
			<path style="fill:#263238;" d="M470.148,466.494c0,0.153-95.647,0.276-213.606,0.276c-118,0-213.626-0.124-213.626-0.276
				c0-0.152,95.626-0.276,213.626-0.276C374.501,466.218,470.148,466.342,470.148,466.494z"/>
		</g>
	</g>
</g>
<g id="Chair">
	<path style="fill:#455A64;" d="M458.86,259.954l-38.064-0.186l-11.284,117.495l-44.831-0.192v7.095l6.116,0.043l3.578,82.43
		l2.449-0.208l-0.975-31.778l31.376-23.643l33.375,27.396l-0.194,28.363l2.457-0.084l1.602-81.955l2.993,0.021l0.151-7.326
		l-0.144-0.001L458.86,259.954z M436.266,384.673l-29.219,22.919l-28.733-23.329L436.266,384.673z M375.773,432.123l-1.47-47.888
		l0.306,0.002l30.4,24.954L375.773,432.123z M409.318,409.435l31.645-23.846l-0.337,49.265L409.318,409.435z"/>
</g>
<g id="Table">
	<g>
		<rect x="201.306" y="335.147" style="fill:#263238;" width="206.242" height="9.97"/>
		<rect x="220.775" y="345.117" style="fill:#263238;" width="4.817" height="121.654"/>
		<rect x="380.261" y="345.117" style="fill:#263238;" width="4.817" height="121.654"/>
	</g>
</g>
<g id="Coffee_Maker">
	<g>
		<g>
			<g>
				<path style="fill:#263238;" d="M374.473,315.465c-0.218-0.027-0.266-1.02-0.224-2.575c0.063-1.562,0.027-3.603-0.272-5.951
					c-0.12-1.148-0.323-2.176-0.718-2.974c-0.39-0.809-0.948-1.318-1.562-1.598c-1.236-0.59-2.111-0.062-2.236-0.248
					c-0.061-0.074,0.059-0.342,0.498-0.603c0.43-0.264,1.211-0.425,2.098-0.193c0.879,0.195,1.884,0.918,2.465,1.951
					c0.609,1.026,0.878,2.271,1.008,3.491c0.136,1.201,0.205,2.372,0.163,3.445c-0.04,1.074-0.187,2.026-0.346,2.804
					C375.02,314.568,374.683,315.491,374.473,315.465z"/>
			</g>
			<polygon style="fill:#263238;" points="360.209,298.829 359.346,297.335 360.705,296.676 361.941,297.253 361.357,298.932 			"/>
			<polygon style="fill:#E8505B;" points="348.642,335.552 353.543,317.936 349.475,305.778 344.457,301.753 370.411,300.978 
				368.896,317.379 374.897,335.552 			"/>
			<polygon style="fill:#E8505B;" points="350.008,301.146 360.553,298.751 370.411,300.978 			"/>
			<polygon style="fill:#263238;" points="353.543,317.936 368.896,317.379 369.073,315.465 352.953,315.465 			"/>
			<g>
				<path style="fill:#263238;" d="M370.547,300.978c0,0.144-4.507,0.26-10.066,0.26c-5.561,0-10.067-0.117-10.067-0.26
					c0-0.144,4.506-0.26,10.067-0.26C366.04,300.718,370.547,300.835,370.547,300.978z"/>
			</g>
			<g>
				<path style="fill:#263238;" d="M355.753,335.402c-0.143-0.019,0.275-4.039,0.932-8.978c0.658-4.941,1.306-8.929,1.449-8.91
					c0.142,0.019-0.275,4.038-0.933,8.979C356.544,331.432,355.895,335.421,355.753,335.402z"/>
			</g>
			<g>
				<path style="fill:#263238;" d="M367.051,335.809c-0.067,0.018-0.412-0.966-0.868-2.587c-0.457-1.621-1.013-3.881-1.507-6.403
					c-0.493-2.523-0.828-4.827-1.016-6.5c-0.188-1.674-0.239-2.715-0.17-2.723c0.074-0.009,0.254,1.016,0.535,2.671
					c0.28,1.655,0.672,3.939,1.162,6.452c0.492,2.511,0.989,4.774,1.353,6.413C366.904,334.772,367.124,335.789,367.051,335.809z"/>
			</g>
		</g>
		<g>
			<path style="fill:#E0E0E0;" d="M347.073,269.897c0.006-0.01,0.122,0.03,0.293,0.18c0.17,0.147,0.398,0.415,0.544,0.829
				c0.15,0.409,0.217,0.95,0.148,1.561c-0.065,0.618-0.31,1.274-0.567,1.973c-0.247,0.699-0.543,1.464-0.482,2.301
				c0.024,0.836,0.347,1.702,0.839,2.531c0.489,0.835,1.13,1.646,1.773,2.517c0.638,0.869,1.305,1.817,1.673,2.964
				c0.391,1.138,0.283,2.423-0.229,3.43c-0.49,1.02-1.204,1.825-1.88,2.554c-1.377,1.41-2.582,2.762-2.839,4.205
				c-0.238,1.415,0.46,2.579,1.086,3.036c0.656,0.485,1.174,0.404,1.161,0.465c0.001,0.016-0.115,0.035-0.343,0.031
				c-0.224-0.019-0.566-0.09-0.935-0.33c-0.722-0.456-1.545-1.663-1.333-3.266c0.236-1.593,1.508-3.054,2.849-4.466
				c0.657-0.725,1.331-1.51,1.771-2.445c0.457-0.926,0.543-2.022,0.194-3.057c-0.331-1.039-0.961-1.956-1.589-2.819
				c-0.63-0.866-1.274-1.697-1.776-2.579c-0.504-0.874-0.848-1.83-0.855-2.761c-0.043-0.941,0.302-1.753,0.57-2.444
				c0.281-0.695,0.536-1.313,0.622-1.881c0.091-0.568,0.058-1.073-0.052-1.459C347.49,270.18,347.029,269.936,347.073,269.897z"/>
		</g>
		<g>
			<path style="fill:#E0E0E0;" d="M351.811,275.18c0.047,0.023-0.15,0.325-0.221,0.932c-0.082,0.599,0.025,1.504,0.513,2.483
				c0.468,0.987,1.385,1.953,2.287,3.157c0.933,1.183,1.588,2.889,1.446,4.671c-0.064,0.887-0.293,1.742-0.671,2.494
				c-0.374,0.756-0.879,1.387-1.372,1.949c-0.998,1.117-1.95,2.037-2.475,3.001c-0.547,0.949-0.735,1.837-0.713,2.444
				c0.011,0.611,0.155,0.938,0.108,0.954c-0.018,0.012-0.233-0.294-0.31-0.941c-0.088-0.641,0.057-1.611,0.592-2.634
				c0.516-1.045,1.482-2.032,2.435-3.139c0.971-1.09,1.798-2.494,1.887-4.165c0.123-1.66-0.442-3.196-1.316-4.355
				c-0.85-1.181-1.771-2.204-2.231-3.281c-0.474-1.057-0.531-2.043-0.379-2.673c0.066-0.318,0.178-0.547,0.26-0.694
				C351.741,275.24,351.796,275.171,351.811,275.18z"/>
		</g>
	</g>
</g>
<g id="Window">
	<g>
		<rect x="184.515" y="48.746" style="fill:#455A64;" width="147.083" height="264.225"/>
		<rect x="190.393" y="56.409" style="fill:#FAFAFA;" width="133.814" height="248.692"/>
		<polygon style="fill:#263238;" points="337.82,315.353 331.599,312.972 331.599,44.265 337.82,44.265 		"/>
		<path style="fill:#F5F5F5;" d="M223.197,217.05c11.584-10.767,23.168-21.534,34.752-32.301c4.404-4.093,10.159-8.502,15.823-6.485
			c2.724,0.97,4.774,3.296,7.443,4.408c5.335,2.223,11.43-0.986,15.532-5.058c4.102-4.072,7.34-9.164,12.31-12.116
			c4.969-2.952,12.692-2.577,15.148,2.655v35.156l-50.504,21.623L223.197,217.05z"/>
		<path style="fill:#E0E0E0;" d="M190.393,196.844c12.806-5.215,25.585-0.783,34.751,9.57c1.93,2.179,3.686,4.697,6.337,5.899
			c3.59,1.628,7.737,0.41,11.654-0.034c10.704-1.213,21.885,4.206,27.564,13.36l-42.755,21.03l-37.55-0.273V196.844z"/>
		<path style="fill:#EBEBEB;" d="M324.206,197.019c-8.434-4.073-15.859,0.855-23.641,6.069c-7.781,5.214-15.012,11.9-24.14,14.001
			c-6.099,1.403-12.634,0.625-18.529,2.724c-12.012,4.278-18.957,19.531-31.687,20.258c-6.912,0.395-13.112-3.795-19.281-6.939
			c-6.169-3.143-11.035-6.128-16.535-1.924V305.1h133.814V197.019z"/>
		
			<ellipse transform="matrix(0.2276 -0.9738 0.9738 0.2276 100.2275 382.256)" style="fill:#E0E0E0;" cx="291.066" cy="127.95" rx="22.075" ry="22.075"/>
		<rect x="190.393" y="127.95" style="fill:#455A64;" width="136.72" height="2.648"/>
		<rect x="190.393" y="187.173" style="fill:#455A64;" width="136.72" height="2.648"/>
		<rect x="190.393" y="246.397" style="fill:#455A64;" width="136.72" height="2.648"/>
		
			<rect x="165.861" y="217.333" transform="matrix(6.123234e-17 -1 1 6.123234e-17 36.5865 478.0127)" style="fill:#455A64;" width="182.878" height="6.761"/>
		<rect x="216.159" y="56.409" style="fill:#455A64;" width="3.063" height="72.866"/>
		<rect x="242.575" y="56.409" style="fill:#455A64;" width="3.063" height="72.866"/>
		<rect x="268.991" y="56.409" style="fill:#455A64;" width="3.063" height="72.866"/>
		<rect x="295.407" y="56.409" style="fill:#455A64;" width="3.063" height="72.866"/>
		<rect x="178.295" y="44.265" style="fill:#263238;" width="6.221" height="270.342"/>
		<rect x="178.295" y="41.537" style="fill:#263238;" width="159.525" height="7.209"/>
		<rect x="173.881" y="316.242" style="fill:#455A64;" width="168.15" height="6.717"/>
		<polygon style="fill:#263238;" points="331.599,312.972 342.031,316.242 173.881,316.242 184.515,312.972 		"/>
	</g>
</g>
<g id="Character">
	<g>
		<path style="fill:#FFBE9D;" d="M162.565,222.604c0,0,11.632,1.506,12.331,20.555c0.699,19.049,1.837,35.004,1.837,35.004
			l-16.283-2.038l-1.537-21.267L162.565,222.604"/>
		<g>
			<g>
				<polygon style="fill:#FFBE9D;" points="94.509,308.469 99.41,467.434 114.313,467.434 120.309,313.932 				"/>
				<path style="fill:#FFBE9D;" d="M119.211,312.769l6.212,74.782l-45.488,50.723l6.439,17.015l51.622-49.91
					c5.504-5.321,8.798-12.524,9.223-20.168l3.74-67.206L119.211,312.769z"/>
				<g>
					<path style="fill:#EB996E;" d="M117.415,396.862c0.026,0.025-0.227,0.338-0.706,0.882c-0.479,0.545-1.189,1.318-2.078,2.261
						c-1.877,1.96-4.311,4.5-7.002,7.31c-2.729,2.858-5.121,5.514-6.827,7.462c-0.792,0.91-1.465,1.682-2.014,2.313
						c-0.478,0.544-0.756,0.835-0.785,0.813c-0.028-0.022,0.196-0.356,0.627-0.94c0.427-0.587,1.075-1.414,1.891-2.423
						c1.638-2.013,3.996-4.719,6.731-7.583c2.729-2.867,5.275-5.385,7.116-7.208c0.864-0.844,1.597-1.56,2.196-2.145
						C117.086,397.103,117.389,396.838,117.415,396.862z"/>
				</g>
				<g>
					<path style="fill:#EB996E;" d="M118.495,424.077c0.025,0.026-0.231,0.322-0.712,0.837c-0.563,0.594-1.248,1.316-2.053,2.165
						c-1.748,1.812-4.14,4.353-7.044,6.901c-2.939,2.49-5.529,4.79-7.268,6.607c-1.751,1.8-2.727,3.017-2.793,2.965
						c-0.027-0.021,0.185-0.35,0.608-0.916c0.423-0.566,1.069-1.361,1.916-2.301c1.68-1.892,4.265-4.265,7.194-6.747
						c2.879-2.526,5.309-5.02,7.125-6.768c0.905-0.878,1.647-1.579,2.172-2.051C118.166,424.298,118.47,424.052,118.495,424.077z"/>
				</g>
			</g>
			<g>
				<g>
					<g>
						<g>
							<g>
								<g>
									<path style="fill:#E8505B;" d="M85.521,456.133l12.045-11.821l-8.398-16.848L75.699,442.38l0.539,1.238
										c1.411,4.815,6.707,21.702,8.782,24.519C87.336,471.279,85.521,456.133,85.521,456.133z"/>
								</g>
							</g>
						</g>
					</g>
				</g>
				<g>
					<path style="fill:#263238;" d="M86.384,463.122c-0.082,0.127-0.872-0.29-1.925-0.329c-1.053-0.062-1.879,0.277-1.948,0.143
						c-0.086-0.109,0.753-0.727,1.973-0.663C85.703,462.326,86.479,463.022,86.384,463.122z"/>
				</g>
				<g>
					<path style="fill:#263238;" d="M78.399,438.945c0.028-0.048,0.608,0.224,1.237,1.017c0.624,0.771,1.238,2.141,1.082,3.712
						c-0.164,1.571-1.041,2.79-1.808,3.419c-0.776,0.65-1.399,0.8-1.416,0.747c-0.039-0.077,0.507-0.344,1.165-1.017
						c0.654-0.656,1.394-1.795,1.54-3.202c0.139-1.408-0.355-2.672-0.864-3.446C78.826,439.385,78.344,439.013,78.399,438.945z"/>
				</g>
				<g>
					<path style="fill:#263238;" d="M96.26,446.302c-0.06,0.036-0.666-0.847-1.566-2.323c-0.901-1.475-2.089-3.548-3.316-5.884
						c-1.226-2.337-2.257-4.492-2.96-6.072c-0.703-1.579-1.086-2.579-1.022-2.608c0.067-0.031,0.568,0.914,1.354,2.449
						c0.87,1.687,1.924,3.73,3.089,5.989c1.197,2.242,2.28,4.269,3.174,5.943C95.831,445.315,96.324,446.264,96.26,446.302z"/>
				</g>
			</g>
			<g>
				<path style="fill:#E8505B;" d="M99.41,467.434c0,0,17.567,13.015,20.899,12.14c3.862-1.015-5.996-12.14-5.996-12.14H99.41z"/>
				<polygon style="fill:#E8505B;" points="98.76,453.065 115.125,453.065 114.313,467.434 99.41,467.434 				"/>
				<g>
					<path style="fill:#263238;" d="M114.474,455.289c0,0.144-3.535,0.26-7.894,0.26c-4.361,0-7.894-0.116-7.894-0.26
						c0-0.144,3.534-0.26,7.894-0.26C110.939,455.029,114.474,455.146,114.474,455.289z"/>
				</g>
				<g>
					<path style="fill:#263238;" d="M102.989,470.12c-0.152,0.005-0.041-1.625-1.156-3.153c-1.073-1.558-2.647-1.992-2.592-2.135
						c0.012-0.06,0.428-0.051,1.04,0.205c0.609,0.251,1.386,0.798,1.977,1.629c0.588,0.833,0.847,1.747,0.882,2.405
						C103.178,469.733,103.049,470.129,102.989,470.12z"/>
				</g>
				<g>
					<path style="fill:#263238;" d="M120.309,475.599c-0.035,0.151-1.387-0.178-2.957,0.296c-1.581,0.442-2.545,1.445-2.655,1.336
						c-0.124-0.06,0.76-1.339,2.51-1.836C118.949,474.877,120.381,475.481,120.309,475.599z"/>
				</g>
			</g>
			<path style="fill:#FFBE9D;" d="M114.313,222.604c0,0-5.782,0.461-10.577,15.605c-4.795,15.145-11.547,34.017-11.547,34.017
				l22.124-3.212V222.604z"/>
			<path style="fill:#E8505B;" d="M158.178,261.079c0.39,2.724,0.736,5.088,0.736,5.088l19.934-1.055l-3.825-26.994
				c0,0-1.165-11.928-12.458-16.361l0-0.001c-0.017-0.006-0.033-0.011-0.05-0.017c-0.454-0.177-0.928-0.339-1.415-0.49
				c-15.226-5.278-29.485-5.247-45.352,0.168c0,0-7.049,1.896-10.465,11.091s-9.052,25.189-9.052,25.189l17.976,3.115l0.104-2.672
				v10.874l-4.498,8.069c-5.89,6.221-17.34,20.138-17.671,34.634c-0.15,6.558-0.396,18.421,0.446,25.444
				c0,0,17.31,15.951,60.123,15.512l2.633-64.679l0,0l0.622-7.113L158.178,261.079z"/>
			<g>
				<path style="fill:#263238;" d="M155.313,177.749c2.408,2.679,2.62,7.045,2.303,10.634c-0.317,3.588-1.102,7.227-0.363,10.753
					c0.313,1.493,0.894,2.922,1.159,4.424c0.265,1.502,0.172,3.164-0.742,4.385c-0.914,1.221-2.83,1.749-4.022,0.797
					c-0.365,1.039-0.743,2.101-1.446,2.948c-0.703,0.847-1.811,1.446-2.892,1.24c-1.548-0.295-2.805-2.117-4.3-1.618
					c-0.924,0.308-1.329,1.354-1.932,2.119c-0.866,1.1-2.335,1.691-3.722,1.499c-1.387-0.192-2.639-1.161-3.174-2.455
					c-0.172-0.417-0.316-0.912-0.725-1.103c-0.724-0.337-1.371,0.538-1.991,1.042c-0.765,0.622-1.922,0.708-2.771,0.205
					c-0.848-0.502-1.33-1.558-1.152-2.528c-1.309,0.966-2.872,1.719-4.496,1.627c-1.624-0.092-3.261-1.242-3.481-2.854
					c-0.241-1.767,1.158-3.29,2.447-4.522c-1.085-0.076-2.207-0.397-2.965-1.177c-0.758-0.78-1.02-2.103-0.37-2.975
					c0.763-1.025,2.343-1.036,3.274-1.911c1.035-0.973,0.928-2.609,0.852-4.027c-0.229-4.324,1.217-8.469,2.988-12.42
					c1.689-3.768,5.66-8.132,11.542-8.15"/>
				<g>
					<g>
						<g>
							<g>
								<g>
									<path style="fill:#FFBE9D;" d="M131.667,217.699l-1.531-32.965l13.187-10.053l12.033,5.838c0,0,0.447,15.085,0.066,21.628
										c-0.38,6.543-6.975,7.261-6.975,7.261s0.208,3.609,0.423,7.405c0.266,4.694-3.282,8.734-7.971,9.077l0,0
										C136.066,226.244,131.892,222.541,131.667,217.699z"/>
								</g>
							</g>
							<g>
								<g>
									<g>
										<path style="fill:#263238;" d="M154.083,191.519c0.001,0.463-0.373,0.838-0.836,0.84c-0.462,0.001-0.838-0.372-0.84-0.834
											c-0.001-0.463,0.373-0.839,0.835-0.84C153.704,190.683,154.081,191.057,154.083,191.519z"/>
									</g>
								</g>
								<g>
									<g>
										<g>
											<path style="fill:#263238;" d="M154.89,190.604c-0.108,0.109-0.728-0.415-1.63-0.461c-0.901-0.059-1.577,0.39-1.671,0.27
												c-0.046-0.053,0.065-0.253,0.361-0.457c0.29-0.203,0.781-0.389,1.343-0.357c0.561,0.033,1.027,0.274,1.292,0.509
												C154.855,190.345,154.942,190.556,154.89,190.604z"/>
										</g>
									</g>
								</g>
							</g>
							<g>
								<g>
									<g>
										<path style="fill:#263238;" d="M144.379,191.549c0.001,0.463-0.372,0.838-0.835,0.84s-0.838-0.372-0.84-0.835
											c-0.001-0.462,0.372-0.839,0.835-0.84S144.378,191.086,144.379,191.549z"/>
									</g>
								</g>
								<g>
									<g>
										<g>
											<path style="fill:#263238;" d="M144.897,190.634c-0.108,0.109-0.728-0.415-1.63-0.461
												c-0.901-0.059-1.577,0.39-1.671,0.27c-0.046-0.053,0.065-0.253,0.361-0.458c0.29-0.203,0.781-0.389,1.343-0.357
												c0.561,0.033,1.027,0.274,1.292,0.509C144.862,190.375,144.949,190.587,144.897,190.634z"/>
										</g>
									</g>
								</g>
							</g>
							<g>
								<g>
									<path style="fill:#FFFFFF;" d="M145.197,199.101c1.123,0.552,3.113,1.346,4.363,1.488c0,0-1.107,1.59-2.986,0.857
										C144.628,200.686,145.197,199.101,145.197,199.101z"/>
								</g>
							</g>
							<g>
								<g>
									<path style="fill:#EB996E;" d="M148.452,209.408c0,0-4.405,0.063-8.677-2.901c0,0,2.207,4.81,8.766,4.519L148.452,209.408z
										"/>
								</g>
							</g>
							<g>
								<g>
									<g>
										<path style="fill:#263238;" d="M148.172,198.239c-0.001-0.05,0.563-0.118,1.475-0.189
											c0.229-0.012,0.455-0.046,0.503-0.216c0.062-0.176-0.028-0.443-0.13-0.727c-0.197-0.591-0.405-1.214-0.624-1.867
											c-0.433-1.328-0.805-2.536-1.057-3.416c-0.252-0.88-0.384-1.433-0.336-1.448c0.047-0.016,0.266,0.508,0.58,1.368
											c0.315,0.86,0.726,2.055,1.158,3.383c0.209,0.656,0.408,1.281,0.597,1.875c0.079,0.278,0.218,0.594,0.092,0.942
											c-0.067,0.173-0.236,0.292-0.383,0.326c-0.147,0.039-0.277,0.035-0.391,0.037
											C148.742,198.311,148.174,198.289,148.172,198.239z"/>
									</g>
								</g>
							</g>
						</g>
					</g>
				</g>
				<path style="fill:#263238;" d="M155.83,180.091c-2.484,4.176-5.36,5.173-8.955,6.943c0.594-0.999,1.187-1.998,1.781-2.998
					c-2.003,2.2-4.682,3.775-7.579,4.454c0.462-0.85,0.924-1.7,1.385-2.549c-2.737,3.777-7.977,8.101-12.627,8.458
					c-0.376-2.706,0.044-7.276,0.274-9.999c0.23-2.722,1.122-5.472,2.986-7.47c2.898-3.105,7.554-3.84,11.793-3.584
					c4.08,0.247,8.488,1.492,10.775,4.881"/>
				<g>
					<g>
						<g>
							<path style="fill:#FFBE9D;" d="M131.136,196.452c0.036-1.091,0.035-2.213-0.361-3.229c-0.396-1.016-1.274-1.915-2.359-2.025
								c-1.249-0.126-2.454,0.915-2.65,2.156c-0.195,1.24,0.532,2.529,1.627,3.141c1.096,0.613,2.483,0.591,3.634,0.091"/>
						</g>
					</g>
					<g>
						<g>
							<g>
								<path style="fill:#EB996E;" d="M129.225,195.505c-0.04-0.072-0.354,0.09-0.816-0.05c-0.465-0.111-0.943-0.639-0.985-1.388
									c-0.028-0.367,0.051-0.707,0.231-0.872c0.183-0.176,0.478-0.227,0.713-0.215c0.49,0.042,0.835,0.171,0.864,0.087
									c0.02-0.055-0.222-0.304-0.808-0.469c-0.292-0.064-0.713-0.081-1.097,0.216c-0.384,0.316-0.479,0.84-0.446,1.291
									c0.031,0.467,0.209,0.908,0.492,1.221c0.278,0.319,0.658,0.479,0.964,0.508
									C128.983,195.896,129.279,195.545,129.225,195.505z"/>
							</g>
						</g>
					</g>
				</g>
				<g>
					<path style="fill:#263238;" d="M122,195.604c-0.005,0.011-0.087-0.052-0.267-0.085c-0.176-0.028-0.467-0.001-0.737,0.217
						c-0.279,0.201-0.435,0.661-0.265,1.121c0.149,0.466,0.629,0.859,1.241,0.947c1.197,0.22,2.861-0.653,3.209-2.29
						c0.179-0.802,0.031-1.68-0.176-2.56c-0.1-0.445-0.228-0.888-0.309-1.364c-0.067-0.483-0.061-0.963-0.052-1.45
						c0.079-1.944,0.288-3.783,0.662-5.433c0.195-0.844,0.627-1.535,1.004-2.18c0.396-0.639,0.821-1.197,1.242-1.676
						c0.843-0.961,1.662-1.602,2.247-2.005c0.589-0.401,0.947-0.568,0.947-0.568c0.004,0.006-0.076,0.064-0.232,0.167
						c-0.157,0.101-0.383,0.258-0.668,0.467c-0.567,0.421-1.364,1.074-2.183,2.036c-0.409,0.48-0.822,1.036-1.206,1.67
						c-0.366,0.638-0.788,1.333-0.965,2.136c-0.358,1.625-0.562,3.469-0.641,5.393c-0.01,0.48-0.014,0.96,0.049,1.412
						c0.076,0.453,0.204,0.906,0.303,1.351c0.205,0.886,0.358,1.797,0.164,2.648c-0.388,1.746-2.15,2.645-3.421,2.394
						c-0.651-0.1-1.178-0.544-1.327-1.055c-0.177-0.503,0.014-1.017,0.325-1.223c0.299-0.224,0.612-0.237,0.795-0.194
						C121.929,195.527,122,195.604,122,195.604z"/>
				</g>
				<g>
					<path style="fill:#455A64;" d="M141.069,187.147c-0.016-0.048,0.944-0.205,2.28-0.957c1.342-0.732,2.962-2.143,4.377-4.003
						c1.414-1.863,2.502-3.695,3.396-4.95c0.441-0.632,0.815-1.131,1.087-1.465c0.133-0.169,0.245-0.294,0.319-0.38
						c0.075-0.085,0.117-0.127,0.123-0.123c0.012,0.01-0.127,0.203-0.378,0.552c-0.251,0.349-0.605,0.859-1.029,1.499
						c-0.86,1.272-1.927,3.115-3.352,4.994c-1.427,1.878-3.09,3.296-4.471,4.005C142.043,187.049,141.069,187.147,141.069,187.147z"
						/>
				</g>
				<g>
					<path style="fill:#263238;" d="M158.349,208.586c-0.021-0.024,0.357-0.22,0.796-0.809c0.428-0.569,0.928-1.6,0.761-2.9
						c-0.074-0.646-0.391-1.298-0.839-1.919c-0.44-0.629-1.01-1.242-1.445-2.019c-0.446-0.775-0.61-1.747-0.501-2.702
						c0.097-0.961,0.4-1.91,0.714-2.864c0.639-1.901,1.111-3.765,1.231-5.494c0.115-1.73-0.184-3.288-0.626-4.52
						c-0.442-1.235-0.946-2.178-1.298-2.823c-0.155-0.274-0.292-0.517-0.417-0.739c-0.095-0.169-0.141-0.26-0.135-0.264
						s0.065,0.08,0.171,0.242c0.104,0.164,0.265,0.401,0.451,0.72c0.375,0.635,0.901,1.572,1.367,2.814
						c0.465,1.238,0.786,2.824,0.679,4.581c-0.112,1.756-0.584,3.638-1.225,5.547c-0.314,0.953-0.612,1.889-0.709,2.819
						c-0.108,0.927,0.044,1.843,0.466,2.589c0.414,0.751,0.976,1.368,1.418,2.012c0.45,0.635,0.776,1.326,0.844,2
						c0.154,1.355-0.386,2.403-0.843,2.969C158.74,208.412,158.349,208.586,158.349,208.586z"/>
				</g>
				<g>
					<path style="fill:#263238;" d="M127.972,190.807c0,0,0.263,0.042,0.711,0.21c0.447,0.167,1.081,0.465,1.773,0.975
						c0.346,0.254,0.701,0.566,1.046,0.935c0.354,0.364,0.646,0.824,1.052,1.186c0.396,0.373,0.976,0.537,1.554,0.401
						c0.578-0.12,1.131-0.435,1.654-0.803c2.13-1.469,3.647-3.307,4.544-4.736c0.454-0.715,0.774-1.323,0.982-1.749
						c0.207-0.426,0.316-0.666,0.332-0.66c0.007,0.003-0.013,0.066-0.056,0.184c-0.045,0.117-0.105,0.293-0.203,0.51
						c-0.186,0.439-0.488,1.062-0.93,1.793c-0.872,1.461-2.392,3.341-4.551,4.829c-0.533,0.374-1.107,0.703-1.732,0.832
						c-0.622,0.15-1.303-0.047-1.722-0.458c-0.432-0.395-0.713-0.855-1.052-1.212c-0.332-0.366-0.674-0.678-1.008-0.934
						c-0.668-0.515-1.282-0.829-1.715-1.017C128.218,190.903,127.966,190.824,127.972,190.807z"/>
				</g>
				<g>
					<path style="fill:#455A64;" d="M128.684,191.188c0,0,0.05-0.325,0.286-0.865c0.23-0.54,0.662-1.291,1.379-2.065
						c1.412-1.59,3.968-3.038,6.238-5.269c2.3-2.205,4.001-4.56,5.076-6.345c0.547-0.889,0.931-1.642,1.206-2.158
						c0.109-0.215,0.209-0.413,0.304-0.6c0.072-0.136,0.112-0.207,0.119-0.204c0.007,0.003-0.021,0.079-0.081,0.221
						c-0.084,0.193-0.173,0.397-0.27,0.618c-0.254,0.527-0.619,1.294-1.152,2.197c-1.047,1.813-2.741,4.2-5.058,6.42
						c-2.293,2.251-4.864,3.682-6.275,5.22c-0.72,0.75-1.163,1.475-1.413,1.998C128.788,190.88,128.71,191.197,128.684,191.188z"/>
				</g>
				<g>
					<path style="fill:#455A64;" d="M125.656,211.768c-0.008-0.022,0.213-0.07,0.525-0.3c0.306-0.231,0.671-0.692,0.836-1.367
						c0.192-0.671,0.096-1.516-0.221-2.383c-0.299-0.873-0.803-1.785-1.076-2.847c-0.582-2.116-0.337-4.15,0.082-5.499
						c0.207-0.681,0.448-1.206,0.63-1.558c0.189-0.349,0.309-0.533,0.319-0.526c0.014,0.008-0.081,0.205-0.246,0.562
						c-0.158,0.36-0.375,0.887-0.561,1.564c-0.376,1.341-0.592,3.334-0.022,5.404c0.264,1.034,0.759,1.941,1.056,2.839
						c0.315,0.886,0.402,1.787,0.181,2.484c-0.191,0.702-0.596,1.176-0.931,1.396C125.887,211.754,125.656,211.768,125.656,211.768z
						"/>
				</g>
			</g>
			<g>
				<g style="opacity:0.1;">
					<path d="M99.086,289.846c3.644,0.306,7.142-1.545,9.987-3.842s5.283-5.087,8.268-7.198c2.985-2.111,6.782-3.516,10.301-2.523
						c3.055,0.861,5.332,3.327,7.752,5.38c5.701,4.835,12.414,7.712,19.878,8.134c-0.055-0.984,0.202-4.071,0.202-4.071
						c-0.806-1.189-2.538-2.103-3.625-3.041c-3.388-2.921-6.777-5.842-10.165-8.763c-2.561-2.208-5.18-4.452-8.299-5.757
						c-2.645-1.107-5.529-1.486-8.377-1.821c-2.435-0.286-4.994-0.531-7.258,0.408c-2.425,1.006-4.115,3.201-5.687,5.304
						c-4.472,5.978-8.945,11.957-13.417,17.935"/>
				</g>
				<g>
					<polygon style="fill:#455A64;" points="120.951,245.626 119.82,269.444 139.444,269.444 141.842,246.302 					"/>
					<g>
						<path style="fill:#FFBE9D;" d="M93.241,269.26l-2.451,5.405c-2.235,7.699,1.909,14.823,8.868,15.392l0,0l17.494-20.45
							l-2.915-12.071L93.241,269.26z"/>
						<g>
							<path style="fill:#FFBE9D;" d="M117.152,269.606c4.079-0.077,9.517-0.886,12.056-1.292c4.724-0.755,4.673-1.184,4.505-1.723
								c-0.452-1.451-8.354,1.011-6.936-0.509c1.418-1.519,9.985-1.88,9.45-3.376c-0.696-1.948-8.925,0.781-9.637,0.961
								c-0.692,0.174-0.969-0.851-0.318-0.978c0.935-0.183,10.718-2.348,10.053-4.269c-0.369-1.065-2.212-0.173-2.212-0.173
								s-9.021,2.705-9.305,1.787c-0.288-0.932,4.959-2.699,6.768-3.17c1.787-0.465,2.314-1.509,1.472-2.135
								c-0.574-0.427-6.144,0.882-7.922,1.39c-1.778,0.507-6.634,1.985-4.781-0.702c0.029-0.042,0.051-0.085,0.079-0.127
								c1.896-2.596,2.497-5.225,2.154-6.103c-0.335-0.857-1.543-0.801-1.998,0.006c-0.083,0.125-0.152,0.263-0.183,0.43
								c-0.013,0.069-0.048,0.158-0.068,0.234c-0.33,0.862-1.048,1.997-1.637,2.857c-0.558,0.815-1.247,1.533-2.046,2.114
								c-0.923,0.671-3.249,3.13-3.951,3.567"/>
						</g>
					</g>
					<g>
						<path style="fill:#455A64;" d="M141.205,263.984c0.05-0.373,1.331-0.389,2.678-1.484c0.665-0.531,1.277-1.325,1.688-2.378
							c0.407-1.047,0.609-2.336,0.477-3.644c-0.135-1.31-0.581-2.501-1.227-3.396c-0.627-0.897-1.472-1.525-2.252-1.925
							c-1.58-0.806-2.849-0.701-2.936-1.076c-0.042-0.165,0.227-0.431,0.839-0.636c0.606-0.195,1.569-0.301,2.712-0.024
							c1.13,0.275,2.45,0.94,3.508,2.159c1.058,1.192,1.768,2.857,1.947,4.637c0.178,1.787-0.176,3.506-0.887,4.905
							c-0.705,1.403-1.826,2.452-2.915,2.953c-1.083,0.523-2.083,0.566-2.719,0.45C141.471,264.401,141.177,264.152,141.205,263.984
							z"/>
					</g>
					<path style="fill:#FFBE9D;" d="M139.296,265.408l-6.301,3.228c-1.122,0.575-1.403,2.054-0.56,2.99
						c5.051,5.604,21.389,21.303,39.721,13.269c3.497-1.532,5.419-5.498,4.093-9.078c-1.037-2.799-4.001-5.508-11.303-6.204
						c-0.044-0.004-0.09-0.01-0.133-0.018l-24.3-4.367C140.097,265.153,139.67,265.216,139.296,265.408z"/>
					<g>
						<path style="fill:#FFBE9D;" d="M133.425,250.965c0,0,7.281,0.08,7.74,1.692c0.763,2.676-0.6,17.342-0.6,17.342l-6.707,2.228
							c0,0-3.235-0.747-1.742-6.968c1.493-6.221,4.434-11.198,4.434-11.198s-8.913,0.249-8.665-1.742
							C128.135,250.328,133.425,250.965,133.425,250.965z"/>
						<path style="fill:#FFBE9D;" d="M136.322,255.292c-0.401-0.076-9.311-0.814-8.752,0.611c0.56,1.425,8.752,1.781,8.752,1.781
							V255.292z"/>
					</g>
					<path style="fill:#263238;" d="M121.947,246.498l18.826,0.568C140.773,247.066,131.522,254.207,121.947,246.498z"/>
					<g>
						<path style="fill:#FFFFFF;" d="M122.102,246.313c0,0-0.18-0.141-0.347-0.529c-0.156-0.383-0.266-1.041-0.005-1.81
							c0.239-0.776,0.94-1.571,1.94-2.105c0.994-0.563,2.262-0.839,3.567-1.278c0.641-0.232,1.345-0.491,1.834-0.993
							c0.515-0.489,0.519-1.304,0.089-1.94c-0.404-0.657-1.143-1.049-1.945-1.373c-0.794-0.327-1.717-0.639-2.431-1.355
							c-0.352-0.35-0.642-0.821-0.719-1.357c-0.076-0.535,0.053-1.076,0.29-1.542c0.482-0.959,1.396-1.567,2.24-2.104
							c1.706-1.055,3.288-2.427,4.607-4.095l0.24-0.304l0.19,0.337c0.201,0.356,0.347,0.775,0.416,1.208
							c0.192,1.173-0.171,2.421-0.982,3.261c-0.389,0.411-0.809,0.75-1.162,1.119c-0.351,0.365-0.629,0.773-0.642,1.208
							c-0.03,0.434,0.222,0.851,0.573,1.137c0.351,0.287,0.813,0.441,1.283,0.528c0.959,0.164,1.951,0.17,2.916,0.231
							c0.966,0.058,1.935,0.172,2.827,0.493c0.888,0.311,1.708,0.835,2.249,1.574c0.538,0.749,0.732,1.676,0.564,2.515
							c-0.087,0.418-0.265,0.819-0.546,1.13c-0.275,0.321-0.623,0.523-0.938,0.706c-0.632,0.337-1.217,0.736-1.332,1.311
							c-0.119,0.574,0.364,1.045,0.841,1.285c0.486,0.262,1.018,0.324,1.507,0.447c0.485,0.116,0.944,0.275,1.277,0.556
							c0.688,0.586,0.65,1.378,0.567,1.777c-0.096,0.431-0.254,0.61-0.254,0.61c-0.024-0.01,0.092-0.211,0.151-0.628
							c0.05-0.39,0.035-1.115-0.59-1.601c-0.304-0.238-0.728-0.373-1.205-0.472c-0.47-0.105-1.034-0.152-1.585-0.429
							c-0.27-0.136-0.544-0.313-0.758-0.583c-0.22-0.262-0.343-0.646-0.277-1.02c0.147-0.774,0.863-1.223,1.472-1.57
							c0.637-0.338,1.154-0.847,1.277-1.596c0.137-0.719-0.046-1.545-0.518-2.181c-0.482-0.645-1.223-1.116-2.053-1.398
							c-0.832-0.292-1.749-0.396-2.703-0.446c-0.955-0.056-1.946-0.051-2.978-0.221c-0.515-0.094-1.057-0.26-1.511-0.625
							c-0.44-0.35-0.801-0.916-0.766-1.548c0.022-0.634,0.404-1.151,0.78-1.544c0.384-0.402,0.802-0.741,1.156-1.118
							c0.7-0.724,1.012-1.804,0.847-2.824c-0.06-0.374-0.185-0.733-0.355-1.035l0.43,0.034c-1.356,1.714-3,3.13-4.743,4.199
							c-0.85,0.533-1.664,1.089-2.074,1.901c-0.205,0.397-0.306,0.836-0.25,1.249c0.057,0.413,0.277,0.789,0.577,1.093
							c0.608,0.624,1.452,0.931,2.268,1.271c0.806,0.333,1.662,0.783,2.131,1.563c0.233,0.377,0.383,0.816,0.365,1.268
							c-0.016,0.454-0.234,0.878-0.529,1.172c-0.604,0.591-1.341,0.829-2.003,1.062c-1.35,0.426-2.586,0.671-3.548,1.187
							c-0.969,0.49-1.635,1.205-1.887,1.92c-0.273,0.712-0.203,1.332-0.085,1.708C121.98,246.13,122.124,246.299,122.102,246.313z"
							/>
					</g>
				</g>
			</g>
		</g>
	</g>
</g>
<g id="Plant">
	<g>
		<g>
			<g>
				<path style="fill:#E8505B;" d="M290.895,190.955c-5.279,0.849-7.639,7.336-7.178,12.663c0.461,5.327,2.651,10.535,2.066,15.849
					c-0.744,6.749-5.844,12.454-6.438,19.218c-0.701,7.977,4.939,15.053,6.624,22.881c0.82,3.809,0.705,7.837,2.123,11.466
					c2.391,6.119,9.404,10.048,15.871,8.893c6.467-1.155,11.686-7.269,11.811-13.838c0.117-6.125-3.663-11.894-3.204-18.003
					c0.339-4.516,2.986-8.795,2.419-13.287c-0.674-5.345-5.628-9.141-7.376-14.238c-1.748-5.098-0.069-10.715-0.672-16.071
					C305.86,196.882,300.533,190.184,290.895,190.955"/>
			</g>
			<g>
				<path style="fill:#E8505B;" d="M263.938,237.475c-0.898,8.902,3.038,19.376,7.616,27.062
					c4.578,7.688,11.675,13.847,19.93,17.298c0.931,0.39,2.09,0.716,2.873,0.081c0.642-0.522,0.722-1.456,0.727-2.284
					c0.063-9.368-2.986-18.73-8.552-26.265C280.964,245.831,272.91,240.167,263.938,237.475"/>
			</g>
			<g style="opacity:0.1;">
				<path d="M263.938,237.475c-0.898,8.902,3.038,19.376,7.616,27.062c4.578,7.688,11.675,13.847,19.93,17.298
					c0.931,0.39,2.09,0.716,2.873,0.081c0.642-0.522,0.722-1.456,0.727-2.284c0.063-9.368-2.986-18.73-8.552-26.265
					C280.964,245.831,272.91,240.167,263.938,237.475"/>
			</g>
			<g>
				<g>
					<path style="fill:#263238;" d="M302.717,300.449c-0.016,0.006-0.103-0.165-0.254-0.496c-0.168-0.384-0.378-0.867-0.635-1.458
						c-0.535-1.271-1.335-3.102-2.353-5.348c-2.033-4.494-5.046-10.612-8.839-17.111c-3.802-6.496-7.655-12.125-10.572-16.101
						c-1.457-1.99-2.659-3.585-3.505-4.675c-0.389-0.514-0.705-0.934-0.958-1.269c-0.214-0.294-0.321-0.453-0.308-0.464
						c0.014-0.011,0.147,0.126,0.387,0.4c0.272,0.319,0.614,0.72,1.033,1.21c0.894,1.054,2.141,2.618,3.638,4.584
						c2.997,3.929,6.909,9.544,10.723,16.06c3.804,6.518,6.775,12.681,8.728,17.22c0.979,2.27,1.73,4.124,2.209,5.421
						c0.222,0.605,0.403,1.1,0.548,1.493C302.678,300.259,302.733,300.442,302.717,300.449z"/>
				</g>
			</g>
			<g>
				<g>
					<path style="fill:#263238;" d="M296.986,215.584c0.018-0.001,0.051,0.293,0.096,0.854c0.044,0.604,0.103,1.422,0.178,2.452
						c0.14,2.177,0.337,5.247,0.58,9.02c0.481,7.617,1.156,18.139,1.973,29.755c0.819,11.619,1.624,22.132,2.214,29.742
						c0.288,3.77,0.523,6.837,0.689,9.013c0.07,1.029,0.126,1.848,0.167,2.452c0.033,0.561,0.042,0.857,0.024,0.858
						c-0.017,0.001-0.06-0.291-0.126-0.849c-0.065-0.603-0.152-1.418-0.262-2.444c-0.205-2.173-0.494-5.236-0.85-9
						c-0.682-7.603-1.544-18.114-2.363-29.736c-0.817-11.619-1.436-22.146-1.826-29.77c-0.176-3.777-0.318-6.85-0.419-9.03
						c-0.035-1.032-0.062-1.851-0.083-2.456C296.967,215.881,296.969,215.585,296.986,215.584z"/>
				</g>
			</g>
		</g>
		<g>
			<g>
				<path style="fill:#263238;" d="M288.798,287.753h22.294v16.368c0,5.911-4.791,10.702-10.702,10.702l0,0
					c-5.689,0-10.383-4.449-10.687-10.13L288.798,287.753z"/>
			</g>
			<g>
				<path style="fill:#455A64;" d="M311.189,295.549c-0.027,0.039-0.283-0.163-0.816-0.341c-0.529-0.18-1.353-0.275-2.342-0.087
					c-0.996,0.163-2.094,0.674-3.376,1.18c-0.642,0.247-1.345,0.481-2.113,0.581c-0.769,0.104-1.577,0.04-2.366-0.119
					c-1.585-0.334-2.962-0.964-4.244-1.374c-1.268-0.425-2.479-0.581-3.478-0.501c-1.003,0.073-1.764,0.4-2.228,0.712
					c-0.464,0.317-0.669,0.568-0.706,0.536c-0.019-0.012,0.132-0.311,0.585-0.699c0.451-0.382,1.253-0.791,2.313-0.916
					c1.054-0.133,2.333-0.005,3.659,0.41c1.321,0.396,2.699,1.006,4.203,1.321c0.75,0.151,1.495,0.212,2.199,0.123
					c0.706-0.085,1.376-0.295,2.009-0.524c1.259-0.468,2.425-0.969,3.486-1.094c1.051-0.152,1.935,0.009,2.473,0.261
					C310.991,295.27,311.207,295.533,311.189,295.549z"/>
			</g>
			<g>
				<path style="fill:#455A64;" d="M311.19,297.463c-0.027,0.039-0.283-0.163-0.816-0.341c-0.529-0.18-1.353-0.275-2.342-0.087
					c-0.996,0.163-2.094,0.675-3.376,1.18c-0.642,0.246-1.345,0.481-2.114,0.581c-0.769,0.104-1.577,0.04-2.366-0.119
					c-1.584-0.334-2.962-0.964-4.244-1.374c-1.268-0.425-2.479-0.581-3.478-0.501c-1.003,0.073-1.765,0.4-2.229,0.712
					c-0.464,0.317-0.669,0.568-0.706,0.536c-0.019-0.012,0.132-0.311,0.585-0.699c0.451-0.382,1.253-0.791,2.313-0.916
					c1.054-0.133,2.333-0.005,3.66,0.41c1.32,0.396,2.699,1.006,4.203,1.321c0.75,0.151,1.495,0.212,2.199,0.123
					c0.706-0.085,1.376-0.295,2.009-0.524c1.259-0.468,2.425-0.969,3.486-1.095c1.051-0.152,1.935,0.009,2.473,0.261
					C310.991,297.183,311.207,297.446,311.19,297.463z"/>
			</g>
			<g>
				<path style="fill:#455A64;" d="M292.785,298.547c0.014,0.074-0.172,0.163-0.236,0.422c-0.074,0.27,0.055,0.573,0.418,0.514
					c0.364-0.056,0.393-0.385,0.239-0.618c-0.14-0.226-0.345-0.254-0.354-0.328c-0.034-0.06,0.274-0.213,0.624,0.078
					c0.155,0.137,0.318,0.382,0.278,0.715c-0.037,0.342-0.365,0.623-0.706,0.668c-0.338,0.062-0.736-0.103-0.877-0.418
					c-0.141-0.305-0.062-0.587,0.044-0.766C292.458,298.43,292.798,298.48,292.785,298.547z"/>
			</g>
			<g>
				<path style="fill:#455A64;" d="M300.85,294.298c-0.066-0.026,0.096-0.339,0.547-0.265c0.203,0.026,0.49,0.237,0.52,0.569
					c0.033,0.306-0.119,0.669-0.496,0.814c-0.38,0.122-0.724-0.059-0.895-0.306c-0.189-0.263-0.137-0.588-0.028-0.756
					c0.238-0.37,0.555-0.323,0.548-0.258c0.018,0.07-0.159,0.172-0.211,0.409c-0.026,0.117-0.008,0.234,0.074,0.316
					c0.079,0.091,0.242,0.143,0.34,0.104c0.098-0.028,0.19-0.174,0.189-0.287c0.008-0.109-0.052-0.195-0.153-0.254
					C301.081,294.266,300.899,294.349,300.85,294.298z"/>
			</g>
			<g>
				<path style="fill:#455A64;" d="M308.657,298.423c-0.024-0.061,0.3-0.189,0.653,0.137c0.163,0.149,0.307,0.471,0.191,0.801
					c-0.104,0.309-0.406,0.603-0.834,0.599c-0.431-0.026-0.713-0.346-0.786-0.671c-0.085-0.349,0.128-0.665,0.325-0.771
					c0.433-0.247,0.721,0.002,0.668,0.049c-0.026,0.067-0.255,0.036-0.443,0.243c-0.092,0.102-0.136,0.229-0.085,0.36
					c0.043,0.135,0.201,0.271,0.338,0.27c0.141,0.008,0.308-0.113,0.369-0.249c0.067-0.13,0.042-0.276-0.027-0.397
					C308.883,298.546,308.655,298.496,308.657,298.423z"/>
			</g>
		</g>
	</g>
</g>
</svg>
